<?xml version="1.0" encoding="utf-8"?><svg fill="none" viewBox="0 0 700 700" xmlns="http://www.w3.org/2000/svg"><defs><linearGradient id="null" gradientUnits="userSpaceOnUse" spreadMethod="pad" x2="0.87" y2="-9.664" x1="-7.098" y1="-47.149"><stop offset="0%" stop-color="#ffeee6" /><stop offset="50%" stop-color="#ffcfc2" /><stop offset="100%" stop-color="#ffb09e" /></linearGradient><linearGradient id="null" gradientUnits="userSpaceOnUse" spreadMethod="pad" x2="-5.25" y2="-4.877" x1="-14.966" y1="-46.959"><stop offset="0%" stop-color="#ffeee6" /><stop offset="50%" stop-color="#ffcfc2" /><stop offset="100%" stop-color="#ffb09e" /></linearGradient><linearGradient id="null" gradientUnits="userSpaceOnUse" spreadMethod="pad" x2="-4.628" y2="1.922" x1="-16.241" y1="-25.436"><stop offset="0%" stop-color="#ffeee6" /><stop offset="50%" stop-color="#ffcfc2" /><stop offset="100%" stop-color="#ffb09e" /></linearGradient><linearGradient id="null" gradientUnits="userSpaceOnUse" spreadMethod="pad" x2="109.579" y2="110.724" x1="-223.999" y1="-222.854"><stop offset="0%" stop-color="#fedbbd" /><stop offset="50%" stop-color="#fd889f" /><stop offset="100%" stop-color="#fd3581" /></linearGradient><linearGradient id="null" gradientUnits="userSpaceOnUse" spreadMethod="pad" x2="-149.559" y2="-149.414" x1="171" y1="171.145"><stop offset="0%" stop-color="#fedbbd" /><stop offset="50%" stop-color="#fd889f" /><stop offset="100%" stop-color="#fd3581" /></linearGradient><linearGradient id="null" gradientUnits="userSpaceOnUse" spreadMethod="pad" x2="73.474" y2="74.619" x1="-74" y1="-72.855"><stop offset="0%" stop-color="#fedbbd" /><stop offset="50%" stop-color="#fd889f" /><stop offset="100%" stop-color="#fd3581" /></linearGradient><linearGradient id="null" gradientUnits="userSpaceOnUse" spreadMethod="pad" x2="0" y2="135.016" x1="0" y1="-42.344"><stop offset="0%" stop-color="#fe646f" /><stop offset="14.799999999999999%" stop-color="#fd626c" /><stop offset="29.7%" stop-color="#fc616a" /><stop offset="45.9%" stop-color="#f95c63" /><stop offset="62.1%" stop-color="#f5575d" /><stop offset="79%" stop-color="#f04f52" /><stop offset="95.89999999999999%" stop-color="#eb4747" /><stop offset="97.89999999999999%" stop-color="#ea4646" /><stop offset="100%" stop-color="#e94444" /></linearGradient><linearGradient id="null" gradientUnits="userSpaceOnUse" spreadMethod="pad" x2="-91.279" y2="-45.542" x1="22.074" y1="19.903"><stop offset="0%" stop-color="#fe646f" /><stop offset="14.799999999999999%" stop-color="#fd626c" /><stop offset="29.7%" stop-color="#fc616a" /><stop offset="45.9%" stop-color="#f95c63" /><stop offset="62.1%" stop-color="#f5575d" /><stop offset="79%" stop-color="#f04f52" /><stop offset="95.89999999999999%" stop-color="#eb4747" /><stop offset="97.89999999999999%" stop-color="#ea4646" /><stop offset="100%" stop-color="#e94444" /></linearGradient><linearGradient id="null" gradientUnits="userSpaceOnUse" spreadMethod="pad" x2="-122.662" y2="-52.222" x1="-28.064" y1="-6.083"><stop offset="0%" stop-color="#fe646f" /><stop offset="14.799999999999999%" stop-color="#fd626c" /><stop offset="29.7%" stop-color="#fc616a" /><stop offset="45.9%" stop-color="#f95c63" /><stop offset="62.1%" stop-color="#f5575d" /><stop offset="79%" stop-color="#f04f52" /><stop offset="95.89999999999999%" stop-color="#eb4747" /><stop offset="97.89999999999999%" stop-color="#ea4646" /><stop offset="100%" stop-color="#e94444" /></linearGradient><linearGradient id="null" gradientUnits="userSpaceOnUse" spreadMethod="pad" x2="-75.503" y2="-39.098" x1="40.271" y1="30.466"><stop offset="0%" stop-color="#fe646f" /><stop offset="14.799999999999999%" stop-color="#fd626c" /><stop offset="29.7%" stop-color="#fc616a" /><stop offset="45.9%" stop-color="#f95c63" /><stop offset="62.1%" stop-color="#f5575d" /><stop offset="79%" stop-color="#f04f52" /><stop offset="95.89999999999999%" stop-color="#eb4747" /><stop offset="97.89999999999999%" stop-color="#ea4646" /><stop offset="100%" stop-color="#e94444" /></linearGradient><linearGradient id="null" gradientUnits="userSpaceOnUse" spreadMethod="pad" x2="29.187" y2="30.938" x1="-30.823" y1="-29.072"><stop offset="0%" stop-color="#eaf6ff" /><stop offset="50%" stop-color="#cfe8fe" /><stop offset="100%" stop-color="#b3dafe" /></linearGradient><linearGradient id="null" gradientUnits="userSpaceOnUse" spreadMethod="pad" x2="11.31" y2="4.799" x1="-10.137" y1="-3.881"><stop offset="0%" stop-color="#eaf6ff" /><stop offset="50%" stop-color="#cfe8fe" /><stop offset="100%" stop-color="#b3dafe" /></linearGradient><linearGradient id="null" gradientUnits="userSpaceOnUse" spreadMethod="pad" x2="29.108" y2="40.897" x1="-29.616" y1="-39.273"><stop offset="0%" stop-color="#eaf6ff" /><stop offset="50%" stop-color="#cfe8fe" /><stop offset="100%" stop-color="#b3dafe" /></linearGradient><linearGradient id="null" gradientUnits="userSpaceOnUse" spreadMethod="pad" x2="109.579" y2="110.724" x1="-223.999" y1="-222.854"><stop offset="0%" stop-color="#fedbbd" /><stop offset="50%" stop-color="#fd889f" /><stop offset="100%" stop-color="#fd3581" /></linearGradient><linearGradient id="null" gradientUnits="userSpaceOnUse" spreadMethod="pad" x2="-149.559" y2="-149.414" x1="171" y1="171.145"><stop offset="0%" stop-color="#fedbbd" /><stop offset="50%" stop-color="#fd889f" /><stop offset="100%" stop-color="#fd3581" /></linearGradient><linearGradient id="null" gradientUnits="userSpaceOnUse" spreadMethod="pad" x2="73.474" y2="74.619" x1="-74" y1="-72.855"><stop offset="0%" stop-color="#fedbbd" /><stop offset="50%" stop-color="#fd889f" /><stop offset="100%" stop-color="#fd3581" /></linearGradient><linearGradient id="null" gradientUnits="userSpaceOnUse" spreadMethod="pad" x2="0" y2="135.016" x1="0" y1="-42.344"><stop offset="0%" stop-color="#fe646f" /><stop offset="14.799999999999999%" stop-color="#fd626c" /><stop offset="29.7%" stop-color="#fc616a" /><stop offset="45.9%" stop-color="#f95c63" /><stop offset="62.1%" stop-color="#f5575d" /><stop offset="79%" stop-color="#f04f52" /><stop offset="95.89999999999999%" stop-color="#eb4747" /><stop offset="97.89999999999999%" stop-color="#ea4646" /><stop offset="100%" stop-color="#e94444" /></linearGradient><linearGradient id="null" gradientUnits="userSpaceOnUse" spreadMethod="pad" x2="-91.279" y2="-45.542" x1="22.074" y1="19.903"><stop offset="0%" stop-color="#fe646f" /><stop offset="14.799999999999999%" stop-color="#fd626c" /><stop offset="29.7%" stop-color="#fc616a" /><stop offset="45.9%" stop-color="#f95c63" /><stop offset="62.1%" stop-color="#f5575d" /><stop offset="79%" stop-color="#f04f52" /><stop offset="95.89999999999999%" stop-color="#eb4747" /><stop offset="97.89999999999999%" stop-color="#ea4646" /><stop offset="100%" stop-color="#e94444" /></linearGradient><linearGradient id="null" gradientUnits="userSpaceOnUse" spreadMethod="pad" x2="-122.662" y2="-52.222" x1="-28.064" y1="-6.083"><stop offset="0%" stop-color="#fe646f" /><stop offset="14.799999999999999%" stop-color="#fd626c" /><stop offset="29.7%" stop-color="#fc616a" /><stop offset="45.9%" stop-color="#f95c63" /><stop offset="62.1%" stop-color="#f5575d" /><stop offset="79%" stop-color="#f04f52" /><stop offset="95.89999999999999%" stop-color="#eb4747" /><stop offset="97.89999999999999%" stop-color="#ea4646" /><stop offset="100%" stop-color="#e94444" /></linearGradient><linearGradient id="null" gradientUnits="userSpaceOnUse" spreadMethod="pad" x2="-75.503" y2="-39.098" x1="40.271" y1="30.466"><stop offset="0%" stop-color="#fe646f" /><stop offset="14.799999999999999%" stop-color="#fd626c" /><stop offset="29.7%" stop-color="#fc616a" /><stop offset="45.9%" stop-color="#f95c63" /><stop offset="62.1%" stop-color="#f5575d" /><stop offset="79%" stop-color="#f04f52" /><stop offset="95.89999999999999%" stop-color="#eb4747" /><stop offset="97.89999999999999%" stop-color="#ea4646" /><stop offset="100%" stop-color="#e94444" /></linearGradient><linearGradient id="null" gradientUnits="userSpaceOnUse" spreadMethod="pad" x2="29.187" y2="30.938" x1="-30.823" y1="-29.072"><stop offset="0%" stop-color="#eaf6ff" /><stop offset="50%" stop-color="#cfe8fe" /><stop offset="100%" stop-color="#b3dafe" /></linearGradient><linearGradient id="null" gradientUnits="userSpaceOnUse" spreadMethod="pad" x2="11.31" y2="4.799" x1="-10.137" y1="-3.881"><stop offset="0%" stop-color="#eaf6ff" /><stop offset="50%" stop-color="#cfe8fe" /><stop offset="100%" stop-color="#b3dafe" /></linearGradient><linearGradient id="null" gradientUnits="userSpaceOnUse" spreadMethod="pad" x2="29.108" y2="40.897" x1="-29.616" y1="-39.273"><stop offset="0%" stop-color="#eaf6ff" /><stop offset="50%" stop-color="#cfe8fe" /><stop offset="100%" stop-color="#b3dafe" /></linearGradient><linearGradient id="null" gradientUnits="userSpaceOnUse" spreadMethod="pad" x2="53.944" y2="162.52" x1="-38.034" y1="-90.188"><stop offset="0%" stop-color="#ffeee6" /><stop offset="50%" stop-color="#ffcfc2" /><stop offset="100%" stop-color="#ffb09e" /></linearGradient><linearGradient id="null" gradientUnits="userSpaceOnUse" spreadMethod="pad" x2="-129.045" y2="0.591" x1="26.763" y1="0.591"><stop offset="0%" stop-color="#ffb09e" /><stop offset="50%" stop-color="#f69885" /><stop offset="100%" stop-color="#ec806b" /></linearGradient><linearGradient id="null" gradientUnits="userSpaceOnUse" spreadMethod="pad" x2="70.493" y2="66.11" x1="-2.37" y1="-4.254"><stop offset="0%" stop-color="#ffb09e" /><stop offset="50%" stop-color="#f69885" /><stop offset="100%" stop-color="#ec806b" /></linearGradient><linearGradient id="null" gradientUnits="userSpaceOnUse" spreadMethod="pad" x2="78.219" y2="66.916" x1="-33.434" y1="-26.772"><stop offset="0%" stop-color="#8ac9fe" /><stop offset="50%" stop-color="#8689cf" /><stop offset="100%" stop-color="#814aa0" /></linearGradient><linearGradient id="null" gradientUnits="userSpaceOnUse" spreadMethod="pad" x2="53.944" y2="162.52" x1="-38.034" y1="-90.188"><stop offset="0%" stop-color="#ffeee6" /><stop offset="50%" stop-color="#ffcfc2" /><stop offset="100%" stop-color="#ffb09e" /></linearGradient><linearGradient id="null" gradientUnits="userSpaceOnUse" spreadMethod="pad" x2="-129.045" y2="0.591" x1="26.763" y1="0.591"><stop offset="0%" stop-color="#ffb09e" /><stop offset="50%" stop-color="#f69885" /><stop offset="100%" stop-color="#ec806b" /></linearGradient><linearGradient id="null" gradientUnits="userSpaceOnUse" spreadMethod="pad" x2="70.493" y2="66.11" x1="-2.37" y1="-4.254"><stop offset="0%" stop-color="#ffb09e" /><stop offset="50%" stop-color="#f69885" /><stop offset="100%" stop-color="#ec806b" /></linearGradient><linearGradient id="null" gradientUnits="userSpaceOnUse" spreadMethod="pad" x2="78.219" y2="66.916" x1="-33.434" y1="-26.772"><stop offset="0%" stop-color="#8ac9fe" /><stop offset="50%" stop-color="#8689cf" /><stop offset="100%" stop-color="#814aa0" /></linearGradient></defs><g id="Hand"><g transform="translate(350.001,490.187)"><animateTransform repeatCount="indefinite" type="translate" attributeName="transform" dur="2s" begin="0.5s" calcMode="spline" values="350.001 490.187; 350.001 540.187; 350.001 490.187" keyTimes="0; 0.5; 1" keySplines="0.333 0 0.667 1; 0.333 0 0.667 1" fill="freeze" /><g transform="scale(1,1) translate(-500.001,-640.187)"><g id="Finger 03"><g transform="translate(476.883,720.57)"><g transform="rotate(0)"><animateTransform repeatCount="indefinite" type="rotate" attributeName="transform" dur="1s" begin="0.5s" calcMode="spline" values="0; -10; 0" keyTimes="0; 0.5; 1" keySplines="0.333 0 0.667 1; 0.333 0 0.667 1" fill="freeze" /><g transform="scale(1,1) translate(-476.883,-720.57)"><g id="Group 3" transform="matrix(1,0,0,1,559.098,672.149)"><path fill="url(#null)" d="M80.245,-28.181C74.232,-44.292,56.216,-52.481,40.12,-46.423L-25.425,-21.776C-43.733,-14.887,-63.013,-11.71,-82.215,-12.146L-66.205,48.42C-41.863,46.309,-17.714,41.001,5.583,32.409L62.016,11.584C78.085,5.661,86.242,-12.139,80.245,-28.181L80.245,-28.181Z" /></g></g></g></g></g></g></g></g><g id="Hand"><g transform="translate(350.001,490.187)"><animateTransform repeatCount="indefinite" type="translate" attributeName="transform" dur="2s" begin="0.5s" calcMode="spline" values="350.001 490.187; 350.001 540.187; 350.001 490.187" keyTimes="0; 0.5; 1" keySplines="0.333 0 0.667 1; 0.333 0 0.667 1" fill="freeze" /><g transform="scale(1,1) translate(-500.001,-640.187)"><g id="Finger 02"><g transform="translate(475.587,727.209)"><g transform="rotate(0)"><animateTransform repeatCount="indefinite" type="rotate" attributeName="transform" dur="1s" begin="0.633s" calcMode="spline" values="0; -10; 0" keyTimes="0; 0.5; 1" keySplines="0.333 0 0.667 1; 0.333 0 0.667 1" fill="freeze" /><g transform="scale(1,1) translate(-475.587,-727.209)"><g id="Group 2" transform="matrix(1,0,0,1,578.966,673.958)"><path fill="url(#null)" d="M100.66,-35.387C93.709,-50.746,75.562,-57.511,60.246,-50.455L-2.127,-21.747C-26.403,-10.566,-53.004,-6.278,-79.139,-8.913L-103.379,52.233C-57.488,56.22,-10.912,48.484,31.785,29.16L85.514,4.831C100.814,-2.092,107.591,-20.094,100.66,-35.387Z" /></g></g></g></g></g></g></g></g><g id="Hand"><g transform="translate(350.001,490.187)"><animateTransform repeatCount="indefinite" type="translate" attributeName="transform" dur="2s" begin="0.5s" calcMode="spline" values="350.001 490.187; 350.001 540.187; 350.001 490.187" keyTimes="0; 0.5; 1" keySplines="0.333 0 0.667 1; 0.333 0 0.667 1" fill="freeze" /><g transform="scale(1,1) translate(-500.001,-640.187)"><g id="Finger 01"><g transform="translate(505.25,741.607)"><g transform="rotate(0)"><animateTransform repeatCount="indefinite" type="rotate" attributeName="transform" dur="1s" begin="0.767s" calcMode="spline" values="0; -10; 0" keyTimes="0; 0.5; 1" keySplines="0.333 0 0.667 1; 0.333 0 0.667 1" fill="freeze" /><g transform="scale(1,1) translate(-505.25,-741.607)"><g id="Group 1" transform="matrix(1,0,0,1,608.241,682.436)"><path fill="url(#null)" d="M99.345,-42.683C91.262,-57.861,72.323,-63.607,57.166,-55.482L-4.562,-22.418C-28.587,-9.542,-55.427,-3.526,-82.243,-4.577L-102.992,59.082C-55.947,60.276,-8.964,49.513,33.312,27.212L86.511,-0.862C101.66,-8.85,107.403,-27.57,99.345,-42.683Z" /></g></g></g></g></g></g></g></g><g id="Null 4"><g transform="translate(349.999,239.47)"><animateTransform repeatCount="indefinite" type="translate" attributeName="transform" dur="3s" begin="0s" calcMode="spline" values="349.999 272.927; 349.999 192.927; 349.999 272.927; 349.999 192.927" keyTimes="0; 0.333; 0.667; 1" keySplines="0.333 0 0.833 1; 0.333 0 0.667 1; 0.333 0 0.833 1" fill="freeze" /><g transform="scale(1,1) translate(-50,-50)"><g transform="matrix(1,0,0,1,50.001,57.073)" id="Shape Layer 1"><g id="Rectangle 1" transform="matrix(1,0,0,1,0,-7)"><path stroke-linejoin="miter" stroke-linecap="butt" stroke-width="0" stroke-opacity="1" stroke="#02ffb3" fill="#e3246c" fill-opacity="1" d="M45.25,-165C38.264,-165,33.264,-163.139,28.756,-160.718C20.358,-156.207,13.664,-149.751,-1,-149.751C-11.735,-149.751,-18.263,-155.328,-25.977,-159.737C-31.018,-162.618,-36.566,-165.001,-44.125,-165.001C-44.125,-158.501,-44.125,159.624,-44.125,164.999C-35.251,164.999,-29.385,162.64,-24.477,159.777C-17.01,155.422,-11.758,149.901,-1.5,149.75C8.963,149.596,17.438,155.408,26.605,159.901C32.332,162.708,38.329,165,45.25,165C45.25,116,45.5,-141.25,45.25,-165Z" /></g></g></g></g></g><g id="Null 4"><g transform="translate(349.999,239.47)"><animateTransform repeatCount="indefinite" type="translate" attributeName="transform" dur="3s" begin="0s" calcMode="spline" values="349.999 272.927; 349.999 192.927; 349.999 272.927; 349.999 192.927" keyTimes="0; 0.333; 0.667; 1" keySplines="0.333 0 0.833 1; 0.333 0 0.667 1; 0.333 0 0.833 1" fill="freeze" /><g transform="scale(1,1) translate(-50,-50)"><g id="Discount Icon 2"><animate repeatCount="indefinite" begin="0.5s" calcMode="discrete" fill="freeze" dur="1.033s" values="visible; hidden" keyTimes="0; 1" attributeName="visibility" /><g transform="translate(50,49.927)"><animateTransform repeatCount="indefinite" type="translate" attributeName="transform" dur="1s" begin="0.5s" calcMode="spline" values="50 49.927; 35 49.927" keyTimes="0; 1" keySplines="0.333 0 0.833 0.75" fill="freeze" /><g transform="scale(1,1)"><animateTransform repeatCount="indefinite" type="scale" attributeName="transform" dur="1s" begin="0.5s" calcMode="spline" values="1 1; 0 1" keyTimes="0; 1" keySplines="0.333 0 0.833 0.75" fill="freeze" /><g transform="translate(-499.999,-492.855)"><g id="Group 10" transform="matrix(1,0,0,1,499.999,492.854)"><path fill="#e3246c" fill-opacity="1" d="M164.081,19.442L148.542,35.255C142.438,41.466,139.606,50.184,140.893,58.797L144.169,80.714C146.407,95.685,136.228,109.686,121.297,112.176L99.45,115.818C90.844,117.253,83.414,122.654,79.394,130.396L69.206,150.017C62.223,163.467,45.738,168.821,32.183,162.044L12.406,152.154C4.597,148.249,-4.595,148.249,-12.405,152.154L-32.183,162.044C-45.738,168.821,-62.222,163.467,-69.206,150.017L-79.394,130.396C-83.415,122.653,-90.843,117.253,-99.449,115.818L-121.297,112.175C-136.228,109.685,-146.407,95.684,-144.169,80.713L-140.893,58.797C-139.606,50.184,-142.438,41.466,-148.542,35.255L-164.081,19.442C-174.685,8.65,-174.685,-8.649,-164.081,-19.441L-148.543,-35.254C-142.439,-41.465,-139.607,-50.183,-140.894,-58.796L-144.17,-80.713C-146.408,-95.684,-136.229,-109.685,-121.298,-112.175L-99.45,-115.817C-90.844,-117.252,-83.415,-122.653,-79.395,-130.395L-69.207,-150.016C-62.224,-163.466,-45.739,-168.82,-32.184,-162.043L-12.406,-152.154C-4.596,-148.249,4.596,-148.249,12.405,-152.154L32.182,-162.044C45.737,-168.821,62.221,-163.467,69.205,-150.017L79.393,-130.396C83.414,-122.653,90.843,-117.253,99.449,-115.818L121.296,-112.175C136.227,-109.685,146.406,-95.684,144.168,-80.713L140.892,-58.797C139.605,-50.184,142.437,-41.466,148.541,-35.255L164.08,-19.442C174.685,-8.649,174.685,8.65,164.081,19.442Z" /></g></g></g></g></g></g></g></g><g id="Null 4"><g transform="translate(349.999,239.47)"><animateTransform repeatCount="indefinite" type="translate" attributeName="transform" dur="3s" begin="0s" calcMode="spline" values="349.999 272.927; 349.999 192.927; 349.999 272.927; 349.999 192.927" keyTimes="0; 0.333; 0.667; 1" keySplines="0.333 0 0.833 1; 0.333 0 0.667 1; 0.333 0 0.833 1" fill="freeze" /><g transform="scale(1,1) translate(-50,-50)"><g id="Discount Icon"><animate repeatCount="indefinite" begin="0.5s" calcMode="discrete" fill="freeze" dur="1.033s" values="visible; hidden" keyTimes="0; 1" attributeName="visibility" /><g transform="translate(50,49.927)"><animateTransform repeatCount="indefinite" type="translate" attributeName="transform" dur="1s" begin="0.5s" calcMode="spline" values="50 49.927; 65 49.927" keyTimes="0; 1" keySplines="0.333 0 0.833 0.75" fill="freeze" /><g transform="scale(1,1)"><animateTransform repeatCount="indefinite" type="scale" attributeName="transform" dur="1s" begin="0.5s" calcMode="spline" values="1 1; 0 1" keyTimes="0; 1" keySplines="0.333 0 0.833 0.75" fill="freeze" /><g transform="translate(-499.999,-492.855)"><g id="Group 10" transform="matrix(1,0,0,1,499.999,492.854)"><path fill="url(#null)" d="M164.081,19.442L148.542,35.255C142.438,41.466,139.606,50.184,140.893,58.797L144.169,80.714C146.407,95.685,136.228,109.686,121.297,112.176L99.45,115.818C90.844,117.253,83.414,122.654,79.394,130.396L69.206,150.017C62.223,163.467,45.738,168.821,32.183,162.044L12.406,152.154C4.597,148.249,-4.595,148.249,-12.405,152.154L-32.183,162.044C-45.738,168.821,-62.222,163.467,-69.206,150.017L-79.394,130.396C-83.415,122.653,-90.843,117.253,-99.449,115.818L-121.297,112.175C-136.228,109.685,-146.407,95.684,-144.169,80.713L-140.893,58.797C-139.606,50.184,-142.438,41.466,-148.542,35.255L-164.081,19.442C-174.685,8.65,-174.685,-8.649,-164.081,-19.441L-148.543,-35.254C-142.439,-41.465,-139.607,-50.183,-140.894,-58.796L-144.17,-80.713C-146.408,-95.684,-136.229,-109.685,-121.298,-112.175L-99.45,-115.817C-90.844,-117.252,-83.415,-122.653,-79.395,-130.395L-69.207,-150.016C-62.224,-163.466,-45.739,-168.82,-32.184,-162.043L-12.406,-152.154C-4.596,-148.249,4.596,-148.249,12.405,-152.154L32.182,-162.044C45.737,-168.821,62.221,-163.467,69.205,-150.017L79.393,-130.396C83.414,-122.653,90.843,-117.253,99.449,-115.818L121.296,-112.175C136.227,-109.685,146.406,-95.684,144.168,-80.713L140.892,-58.797C139.605,-50.184,142.437,-41.466,148.541,-35.255L164.08,-19.442C174.685,-8.649,174.685,8.65,164.081,19.442Z" /></g><g id="Group 9" transform="matrix(1,0,0,1,500,492.855)"><path fill="url(#null)" d="M0,-123.013C67.938,-123.013,123.013,-67.938,123.013,0C123.013,67.938,67.938,123.013,0,123.013C-67.938,123.013,-123.013,67.938,-123.013,0C-123.013,-67.938,-67.938,-123.013,0,-123.013Z" /></g><g id="Group 8" transform="matrix(1,0,0,1,500,492.855)"><ellipse ry="104.928" rx="104.928" cy="0" cx="0" fill="url(#null)" /></g><g id="Group 7" transform="matrix(1,0,0,1,500,575.344)"><path fill="url(#null)" d="M-148.543,-47.234C-142.439,-41.023,-139.607,-32.305,-140.894,-23.692L-144.17,-1.775C-146.408,13.196,-136.228,27.197,-121.297,29.687L-99.45,33.33C-90.844,34.765,-83.415,40.165,-79.395,47.908L-69.207,67.528C-62.224,80.978,-45.738,86.332,-32.183,79.555L-12.406,69.667C-4.596,65.762,4.596,65.762,12.405,69.667L32.182,79.555C45.737,86.332,62.222,80.978,69.206,67.528L79.394,47.908C83.415,40.165,90.843,34.765,99.449,33.33L121.296,29.687C136.227,27.197,146.407,13.196,144.169,-1.775L140.893,-23.693C139.606,-32.306,142.438,-41.024,148.542,-47.235L164.08,-63.048C169.383,-68.444,172.034,-75.467,172.034,-82.49L-172.034,-82.49C-172.034,-75.468,-169.382,-68.444,-164.08,-63.048L-148.543,-47.234Z" /></g><g id="Group 6" transform="matrix(1,0,0,1,554.926,532.097)"><path fill="url(#null)" d="M44.525,76.575L66.372,72.932C81.303,70.442,91.483,56.441,89.245,41.47L85.969,19.552C84.682,10.939,87.514,2.221,93.618,-3.99L97.326,-7.764C97.709,-10.033,98.469,-12.251,99.63,-14.308L-5.47,-119.408C-7.614,-123.338,-12.257,-125.728,-16.567,-125.728C-20.323,-125.728,-23.662,-124.058,-25.332,-120.511L-98.586,29.962C-99.212,31.214,-99.63,32.675,-99.63,33.928C-99.63,37.537,-97.43,41.442,-93.728,43.509L-11.534,125.703C-1.088,126.148,9.155,120.646,14.281,110.775L24.469,91.154C28.49,83.411,35.918,78.01,44.525,76.575L44.525,76.575Z" /></g><g id="Group 5" transform="matrix(1,0,0,1,533.064,525.083)"><path fill="url(#null)" d="M109.699,62.176L-52.164,-99.686C-57.71,-107.138,-67.297,-110.155,-78.394,-110.155C-96.133,-110.155,-109.699,-102.643,-109.699,-81.981L-109.699,-52.345C-109.699,-41.685,-106.081,-34.533,-100.148,-30.1L40.106,110.155L46.33,98.168C50.351,90.425,57.779,85.026,66.385,83.591L88.233,79.947C98.401,78.251,106.358,71.217,109.698,62.176L109.699,62.176Z" /></g><g id="Group 4" transform="matrix(1,0,0,1,581.729,549.534)"><path fill="url(#null)" d="M-31.445,-67.617C-49.184,-67.617,-62.749,-60.105,-62.749,-39.443L-62.749,-9.807C-62.749,0.853,-59.132,8.006,-53.199,12.439L1.979,67.617C6.104,63.183,11.612,60.158,17.721,59.14L39.569,55.496C54.5,53.006,64.679,39.005,62.441,24.034L60.064,8.128L-5.213,-57.149C-10.76,-64.6,-20.347,-67.617,-31.445,-67.617L-31.445,-67.617Z" /></g><g id="Group 3" transform="matrix(1,0,0,1,453.823,457.072)"><path fill="url(#null)" d="M10.435,14.818C10.435,21.705,6.47,24.835,0,24.835C-6.47,24.835,-10.226,21.705,-10.226,14.818L-10.226,-14.818C-10.226,-21.705,-6.469,-24.835,0,-24.835C6.47,-24.835,10.435,-21.705,10.435,-14.818L10.435,14.818ZM0,-42.992C-17.738,-42.992,-31.305,-35.479,-31.305,-14.818L-31.305,14.818L-31.305,14.818C-31.305,35.479,-17.738,42.992,0,42.992C17.53,42.992,31.305,35.479,31.305,14.818L31.305,-14.818C31.305,-35.479,17.53,-42.992,0,-42.992Z" /></g><g id="Group 2" transform="matrix(1,0,0,1,502.137,490.881)"><path fill="url(#null)" d="M47.688,-74.296C47.688,-73.043,47.479,-71.583,46.853,-70.331L-26.608,80.14C-28.069,83.27,-32.035,85.357,-36,85.357C-43.096,85.357,-47.688,79.514,-47.688,74.296C-47.688,73.044,-47.27,71.584,-46.644,70.331L26.608,-80.14C28.279,-83.688,31.618,-85.357,35.374,-85.357C41.218,-85.357,47.688,-80.974,47.688,-74.296L47.688,-74.296Z" /></g><g id="Group 1" transform="matrix(1,0,0,1,549.616,524.273)"><path fill="url(#null)" d="M10.435,14.816C10.435,21.703,6.469,24.834,0,24.834C-6.47,24.834,-10.227,21.703,-10.227,14.816L-10.227,-14.818C-10.227,-21.705,-6.469,-24.836,0,-24.836C6.469,-24.836,10.435,-21.705,10.435,-14.818L10.435,14.816ZM0,-42.991C-17.738,-42.991,-31.304,-35.478,-31.304,-14.817L-31.304,14.817C-31.304,35.478,-17.739,42.991,0,42.991C17.53,42.991,31.304,35.479,31.304,14.817L31.304,-14.817C31.304,-35.478,17.53,-42.991,0,-42.991Z" /></g></g></g></g></g></g></g></g><g id="Null 4"><g transform="translate(349.999,239.47)"><animateTransform repeatCount="indefinite" type="translate" attributeName="transform" dur="3s" begin="0s" calcMode="spline" values="349.999 272.927; 349.999 192.927; 349.999 272.927; 349.999 192.927" keyTimes="0; 0.333; 0.667; 1" keySplines="0.333 0 0.833 1; 0.333 0 0.667 1; 0.333 0 0.833 1" fill="freeze" /><g transform="scale(1,1) translate(-50,-50)"><g visibility="hidden" id="Discount Icon 3"><animate repeatCount="indefinite" begin="1.5s" calcMode="discrete" fill="freeze" dur="2.033s" values="visible; visible" keyTimes="0; 1" attributeName="visibility" /><g transform="translate(65,49.927)"><animateTransform repeatCount="indefinite" type="translate" attributeName="transform" dur="1s" begin="1.5s" calcMode="spline" values="65 49.927; 50 49.927" keyTimes="0; 1" keySplines="0.167 0.25 0.667 1" fill="freeze" /><g transform="scale(0,1)"><animateTransform repeatCount="indefinite" type="scale" attributeName="transform" dur="1s" begin="1.5s" calcMode="spline" values="0 1; 1 1" keyTimes="0; 1" keySplines="0.167 0.25 0.667 1" fill="freeze" /><g transform="translate(-499.999,-492.855)"><g id="Group 10" transform="matrix(1,0,0,1,499.999,492.854)"><path fill="#e3246c" fill-opacity="1" d="M164.081,19.442L148.542,35.255C142.438,41.466,139.606,50.184,140.893,58.797L144.169,80.714C146.407,95.685,136.228,109.686,121.297,112.176L99.45,115.818C90.844,117.253,83.414,122.654,79.394,130.396L69.206,150.017C62.223,163.467,45.738,168.821,32.183,162.044L12.406,152.154C4.597,148.249,-4.595,148.249,-12.405,152.154L-32.183,162.044C-45.738,168.821,-62.222,163.467,-69.206,150.017L-79.394,130.396C-83.415,122.653,-90.843,117.253,-99.449,115.818L-121.297,112.175C-136.228,109.685,-146.407,95.684,-144.169,80.713L-140.893,58.797C-139.606,50.184,-142.438,41.466,-148.542,35.255L-164.081,19.442C-174.685,8.65,-174.685,-8.649,-164.081,-19.441L-148.543,-35.254C-142.439,-41.465,-139.607,-50.183,-140.894,-58.796L-144.17,-80.713C-146.408,-95.684,-136.229,-109.685,-121.298,-112.175L-99.45,-115.817C-90.844,-117.252,-83.415,-122.653,-79.395,-130.395L-69.207,-150.016C-62.224,-163.466,-45.739,-168.82,-32.184,-162.043L-12.406,-152.154C-4.596,-148.249,4.596,-148.249,12.405,-152.154L32.182,-162.044C45.737,-168.821,62.221,-163.467,69.205,-150.017L79.393,-130.396C83.414,-122.653,90.843,-117.253,99.449,-115.818L121.296,-112.175C136.227,-109.685,146.406,-95.684,144.168,-80.713L140.892,-58.797C139.605,-50.184,142.437,-41.466,148.541,-35.255L164.08,-19.442C174.685,-8.649,174.685,8.65,164.081,19.442Z" /></g></g></g></g></g></g></g></g><g id="Null 4"><g transform="translate(349.999,239.47)"><animateTransform repeatCount="indefinite" type="translate" attributeName="transform" dur="3s" begin="0s" calcMode="spline" values="349.999 272.927; 349.999 192.927; 349.999 272.927; 349.999 192.927" keyTimes="0; 0.333; 0.667; 1" keySplines="0.333 0 0.833 1; 0.333 0 0.667 1; 0.333 0 0.833 1" fill="freeze" /><g transform="scale(1,1) translate(-50,-50)"><g visibility="hidden" id="Discount Icon 4"><animate repeatCount="indefinite" begin="1.5s" calcMode="discrete" fill="freeze" dur="2.033s" values="visible; visible" keyTimes="0; 1" attributeName="visibility" /><g transform="translate(35,49.927)"><animateTransform repeatCount="indefinite" type="translate" attributeName="transform" dur="1s" begin="1.5s" calcMode="spline" values="35 49.927; 50 49.927" keyTimes="0; 1" keySplines="0.167 0.25 0.667 1" fill="freeze" /><g transform="scale(0,1)"><animateTransform repeatCount="indefinite" type="scale" attributeName="transform" dur="1s" begin="1.5s" calcMode="spline" values="0 1; 1 1" keyTimes="0; 1" keySplines="0.167 0.25 0.667 1" fill="freeze" /><g transform="translate(-499.999,-492.855)"><g id="Group 10" transform="matrix(1,0,0,1,499.999,492.854)"><path fill="url(#null)" d="M164.081,19.442L148.542,35.255C142.438,41.466,139.606,50.184,140.893,58.797L144.169,80.714C146.407,95.685,136.228,109.686,121.297,112.176L99.45,115.818C90.844,117.253,83.414,122.654,79.394,130.396L69.206,150.017C62.223,163.467,45.738,168.821,32.183,162.044L12.406,152.154C4.597,148.249,-4.595,148.249,-12.405,152.154L-32.183,162.044C-45.738,168.821,-62.222,163.467,-69.206,150.017L-79.394,130.396C-83.415,122.653,-90.843,117.253,-99.449,115.818L-121.297,112.175C-136.228,109.685,-146.407,95.684,-144.169,80.713L-140.893,58.797C-139.606,50.184,-142.438,41.466,-148.542,35.255L-164.081,19.442C-174.685,8.65,-174.685,-8.649,-164.081,-19.441L-148.543,-35.254C-142.439,-41.465,-139.607,-50.183,-140.894,-58.796L-144.17,-80.713C-146.408,-95.684,-136.229,-109.685,-121.298,-112.175L-99.45,-115.817C-90.844,-117.252,-83.415,-122.653,-79.395,-130.395L-69.207,-150.016C-62.224,-163.466,-45.739,-168.82,-32.184,-162.043L-12.406,-152.154C-4.596,-148.249,4.596,-148.249,12.405,-152.154L32.182,-162.044C45.737,-168.821,62.221,-163.467,69.205,-150.017L79.393,-130.396C83.414,-122.653,90.843,-117.253,99.449,-115.818L121.296,-112.175C136.227,-109.685,146.406,-95.684,144.168,-80.713L140.892,-58.797C139.605,-50.184,142.437,-41.466,148.541,-35.255L164.08,-19.442C174.685,-8.649,174.685,8.65,164.081,19.442Z" /></g><g id="Group 9" transform="matrix(1,0,0,1,500,492.855)"><path fill="url(#null)" d="M0,-123.013C67.938,-123.013,123.013,-67.938,123.013,0C123.013,67.938,67.938,123.013,0,123.013C-67.938,123.013,-123.013,67.938,-123.013,0C-123.013,-67.938,-67.938,-123.013,0,-123.013Z" /></g><g id="Group 8" transform="matrix(1,0,0,1,500,492.855)"><ellipse ry="104.928" rx="104.928" cy="0" cx="0" fill="url(#null)" /></g><g id="Group 7" transform="matrix(1,0,0,1,500,575.344)"><path fill="url(#null)" d="M-148.543,-47.234C-142.439,-41.023,-139.607,-32.305,-140.894,-23.692L-144.17,-1.775C-146.408,13.196,-136.228,27.197,-121.297,29.687L-99.45,33.33C-90.844,34.765,-83.415,40.165,-79.395,47.908L-69.207,67.528C-62.224,80.978,-45.738,86.332,-32.183,79.555L-12.406,69.667C-4.596,65.762,4.596,65.762,12.405,69.667L32.182,79.555C45.737,86.332,62.222,80.978,69.206,67.528L79.394,47.908C83.415,40.165,90.843,34.765,99.449,33.33L121.296,29.687C136.227,27.197,146.407,13.196,144.169,-1.775L140.893,-23.693C139.606,-32.306,142.438,-41.024,148.542,-47.235L164.08,-63.048C169.383,-68.444,172.034,-75.467,172.034,-82.49L-172.034,-82.49C-172.034,-75.468,-169.382,-68.444,-164.08,-63.048L-148.543,-47.234Z" /></g><g id="Group 6" transform="matrix(1,0,0,1,554.926,532.097)"><path fill="url(#null)" d="M44.525,76.575L66.372,72.932C81.303,70.442,91.483,56.441,89.245,41.47L85.969,19.552C84.682,10.939,87.514,2.221,93.618,-3.99L97.326,-7.764C97.709,-10.033,98.469,-12.251,99.63,-14.308L-5.47,-119.408C-7.614,-123.338,-12.257,-125.728,-16.567,-125.728C-20.323,-125.728,-23.662,-124.058,-25.332,-120.511L-98.586,29.962C-99.212,31.214,-99.63,32.675,-99.63,33.928C-99.63,37.537,-97.43,41.442,-93.728,43.509L-11.534,125.703C-1.088,126.148,9.155,120.646,14.281,110.775L24.469,91.154C28.49,83.411,35.918,78.01,44.525,76.575L44.525,76.575Z" /></g><g id="Group 5" transform="matrix(1,0,0,1,533.064,525.083)"><path fill="url(#null)" d="M109.699,62.176L-52.164,-99.686C-57.71,-107.138,-67.297,-110.155,-78.394,-110.155C-96.133,-110.155,-109.699,-102.643,-109.699,-81.981L-109.699,-52.345C-109.699,-41.685,-106.081,-34.533,-100.148,-30.1L40.106,110.155L46.33,98.168C50.351,90.425,57.779,85.026,66.385,83.591L88.233,79.947C98.401,78.251,106.358,71.217,109.698,62.176L109.699,62.176Z" /></g><g id="Group 4" transform="matrix(1,0,0,1,581.729,549.534)"><path fill="url(#null)" d="M-31.445,-67.617C-49.184,-67.617,-62.749,-60.105,-62.749,-39.443L-62.749,-9.807C-62.749,0.853,-59.132,8.006,-53.199,12.439L1.979,67.617C6.104,63.183,11.612,60.158,17.721,59.14L39.569,55.496C54.5,53.006,64.679,39.005,62.441,24.034L60.064,8.128L-5.213,-57.149C-10.76,-64.6,-20.347,-67.617,-31.445,-67.617L-31.445,-67.617Z" /></g><g id="Group 3" transform="matrix(1,0,0,1,453.823,457.072)"><path fill="url(#null)" d="M10.435,14.818C10.435,21.705,6.47,24.835,0,24.835C-6.47,24.835,-10.226,21.705,-10.226,14.818L-10.226,-14.818C-10.226,-21.705,-6.469,-24.835,0,-24.835C6.47,-24.835,10.435,-21.705,10.435,-14.818L10.435,14.818ZM0,-42.992C-17.738,-42.992,-31.305,-35.479,-31.305,-14.818L-31.305,14.818L-31.305,14.818C-31.305,35.479,-17.738,42.992,0,42.992C17.53,42.992,31.305,35.479,31.305,14.818L31.305,-14.818C31.305,-35.479,17.53,-42.992,0,-42.992Z" /></g><g id="Group 2" transform="matrix(1,0,0,1,502.137,490.881)"><path fill="url(#null)" d="M47.688,-74.296C47.688,-73.043,47.479,-71.583,46.853,-70.331L-26.608,80.14C-28.069,83.27,-32.035,85.357,-36,85.357C-43.096,85.357,-47.688,79.514,-47.688,74.296C-47.688,73.044,-47.27,71.584,-46.644,70.331L26.608,-80.14C28.279,-83.688,31.618,-85.357,35.374,-85.357C41.218,-85.357,47.688,-80.974,47.688,-74.296L47.688,-74.296Z" /></g><g id="Group 1" transform="matrix(1,0,0,1,549.616,524.273)"><path fill="url(#null)" d="M10.435,14.816C10.435,21.703,6.469,24.834,0,24.834C-6.47,24.834,-10.227,21.703,-10.227,14.816L-10.227,-14.818C-10.227,-21.705,-6.469,-24.836,0,-24.836C6.469,-24.836,10.435,-21.705,10.435,-14.818L10.435,14.816ZM0,-42.991C-17.738,-42.991,-31.304,-35.478,-31.304,-14.817L-31.304,14.817C-31.304,35.478,-17.739,42.991,0,42.991C17.53,42.991,31.304,35.479,31.304,14.817L31.304,-14.817C31.304,-35.478,17.53,-42.991,0,-42.991Z" /></g></g></g></g></g></g></g></g><g opacity="0" id="Null 4"><g transform="translate(349.999,239.47)"><animateTransform repeatCount="indefinite" type="translate" attributeName="transform" dur="3s" begin="0s" calcMode="spline" values="349.999 272.927; 349.999 192.927; 349.999 272.927; 349.999 192.927" keyTimes="0; 0.333; 0.667; 1" keySplines="0.333 0 0.833 1; 0.333 0 0.667 1; 0.333 0 0.833 1" fill="freeze" /><g transform="scale(1,1) translate(-50,-50)" /></g></g><g id="Hand"><g transform="translate(350.001,490.187)"><animateTransform repeatCount="indefinite" type="translate" attributeName="transform" dur="2s" begin="0.5s" calcMode="spline" values="350.001 490.187; 350.001 540.187; 350.001 490.187" keyTimes="0; 0.5; 1" keySplines="0.333 0 0.667 1; 0.333 0 0.667 1" fill="freeze" /><g transform="scale(1,1) translate(-500.001,-640.187)"><g id="Group 4" transform="matrix(1,0,0,1,518.034,640.188)"><path fill="url(#null)" d="M182.07,-10.596L156.386,8.636C155.258,9.427,154.12,10.204,152.976,10.967C122.141,31.511,84.897,40.076,48.015,36.522C17.171,33.55,4.827,31.377,-34.898,9.93C-41.825,6.19,-42.78,-1.293,-37.034,-6.674L-35.46,-8.149C-4.651,-20.534,24.925,-35.728,52.899,-53.526C68.961,-63.745,73.348,-85.259,62.656,-101.01C52.924,-115.347,33.948,-119.966,18.673,-111.785C-7.553,-97.738,-36.442,-89.176,-66.208,-86.719C-71.895,-86.25,-77.617,-86.405,-83.292,-86.996C-101.172,-88.857,-144.46,-93.062,-158.958,-91.743C-159.092,-91.731,-159.226,-91.719,-159.361,-91.706C-197.31,-88.193,-228.394,-60.074,-235.806,-22.686L-236.247,-20.46C-245.83,27.833,-214.431,74.76,-166.127,84.335L-82.717,100.87L-30.179,110.775C52.285,125.647,137.289,107.289,206.066,59.754L222.756,47.323C238.835,36.216,242.797,14.213,231.613,-1.832C220.388,-17.934,198.14,-21.865,182.07,-10.596L182.07,-10.596Z" /></g><g id="Group 3" transform="matrix(1,0,0,1,395.237,658.409)"><path fill="url(#null)" d="M-76.392,-95.783C-94.94,-83.368,-108.454,-63.896,-113.012,-40.908L-113.452,-38.682C-123.035,9.611,-91.636,56.538,-43.332,66.113L40.077,82.649L92.616,92.554C100.119,93.907,107.643,94.977,115.174,95.783L-76.392,-95.783Z" /></g><g id="Group 2" transform="matrix(1,0,0,1,491.37,586.254)"><path fill="url(#null)" d="M89.319,-47.079C79.586,-61.415,60.611,-66.034,45.336,-57.853C16.407,-42.358,-15.76,-33.537,-48.771,-32.223C-49.267,-32.203,-49.762,-32.18,-50.257,-32.155C-106.054,-29.362,-111.69,50.912,-56.836,61.503C-52.894,62.264,-48.816,61.872,-45.09,60.374L-8.796,45.784C22.013,33.399,51.591,18.205,79.564,0.407C95.626,-9.813,100.012,-31.328,89.319,-47.079Z" /></g><g id="Group 1" transform="matrix(1,0,0,1,281.434,636.772)"><path fill="url(#null)" d="M15.628,94.758L-15.628,94.758C-27.671,94.758,-37.434,84.994,-37.434,72.951L-37.434,-72.951C-37.434,-84.994,-27.671,-94.758,-15.628,-94.758L15.628,-94.758C27.671,-94.758,37.434,-84.994,37.434,-72.951L37.434,72.951C37.434,84.994,27.671,94.758,15.628,94.758Z" /></g></g></g></g><g id="Hand 2"><g transform="translate(350.001,490.187)"><animateTransform repeatCount="indefinite" type="translate" attributeName="transform" dur="2s" begin="0.5s" calcMode="spline" values="350.001 490.187; 350.001 540.187; 350.001 490.187" keyTimes="0; 0.5; 1" keySplines="0.333 0 0.667 1; 0.333 0 0.667 1" fill="freeze" /><g transform="scale(1,1) translate(-500.001,-640.187)"><g id="Group 4" transform="matrix(1,0,0,1,518.034,640.188)"><path fill="url(#null)" d="M182.07,-10.596L156.386,8.636C155.258,9.427,154.12,10.204,152.976,10.967C122.141,31.511,84.897,40.076,48.015,36.522C17.171,33.55,4.827,31.377,-34.898,9.93C-41.825,6.19,-42.78,-1.293,-37.034,-6.674L-35.46,-8.149C-4.651,-20.534,24.925,-35.728,52.899,-53.526C68.961,-63.745,73.348,-85.259,62.656,-101.01C52.924,-115.347,33.948,-119.966,18.673,-111.785C-7.553,-97.738,-36.442,-89.176,-66.208,-86.719C-71.895,-86.25,-77.617,-86.405,-83.292,-86.996C-101.172,-88.857,-144.46,-93.062,-158.958,-91.743C-159.092,-91.731,-159.226,-91.719,-159.361,-91.706C-197.31,-88.193,-228.394,-60.074,-235.806,-22.686L-236.247,-20.46C-245.83,27.833,-214.431,74.76,-166.127,84.335L-82.717,100.87L-30.179,110.775C52.285,125.647,137.289,107.289,206.066,59.754L222.756,47.323C238.835,36.216,242.797,14.213,231.613,-1.832C220.388,-17.934,198.14,-21.865,182.07,-10.596L182.07,-10.596Z" /></g><g id="Group 3" transform="matrix(1,0,0,1,395.237,658.409)"><path fill="url(#null)" d="M-76.392,-95.783C-94.94,-83.368,-108.454,-63.896,-113.012,-40.908L-113.452,-38.682C-123.035,9.611,-91.636,56.538,-43.332,66.113L40.077,82.649L92.616,92.554C100.119,93.907,107.643,94.977,115.174,95.783L-76.392,-95.783Z" /></g><g id="Group 2" transform="matrix(1,0,0,1,491.37,586.254)"><path fill="url(#null)" d="M89.319,-47.079C79.586,-61.415,60.611,-66.034,45.336,-57.853C16.407,-42.358,-15.76,-33.537,-48.771,-32.223C-49.267,-32.203,-49.762,-32.18,-50.257,-32.155C-106.054,-29.362,-111.69,50.912,-56.836,61.503C-52.894,62.264,-48.816,61.872,-45.09,60.374L-8.796,45.784C22.013,33.399,51.591,18.205,79.564,0.407C95.626,-9.813,100.012,-31.328,89.319,-47.079Z" /></g><g id="Group 1" transform="matrix(1,0,0,1,281.434,636.772)"><path fill="url(#null)" d="M15.628,94.758L-15.628,94.758C-27.671,94.758,-37.434,84.994,-37.434,72.951L-37.434,-72.951C-37.434,-84.994,-27.671,-94.758,-15.628,-94.758L15.628,-94.758C27.671,-94.758,37.434,-84.994,37.434,-72.951L37.434,72.951C37.434,84.994,27.671,94.758,15.628,94.758Z" /></g></g></g></g></svg>