<svg fill="none" height="100%" width="100%" viewBox="0 0 400 400" xmlns:xlink="http://www.w3.org/1999/xlink" xmlns="http://www.w3.org/2000/svg"><g transform="matrix(1,0,0,1,123.148,142.532)" opacity="0.1" id="i0"><g id="i1" transform="matrix(1,0,0,1,86.064,73.082)"><path fill="#2b5e82" d="M-50.694,-46.45C-60.559,-40.696,-103.587,-7.148,-78.113,3.246C-54.446,12.898,-55.14,35.497,-65.052,45.38C-78.947,59.208,-77.372,73.083,-62.227,73.083C-62.227,73.083,51.712,73.083,51.712,73.083C93.258,73.083,93.906,47.283,70.748,35.497C32.12,15.915,93.35,-34.757,78.02,-59.535C62.365,-84.778,-7.759,-71.461,-50.694,-46.45Z" /></g></g><g visibility="hidden" id="i2"><animate repeatCount="indefinite" begin="0s" calcMode="discrete" dur="5.005s" values="hidden; visible; visible; visible" keyTimes="0; 0.2; 0.999999; 1" attributeName="visibility" /><g transform="translate(192.515,199.464)"><animateTransform repeatCount="indefinite" type="translate" attributeName="transform" dur="5.005s" begin="0s" calcMode="spline" values="192.515 199.464; 192.515 199.464; 164.515 145.964; 164.515 145.964; 206.515 244.464; 206.515 244.464" keyTimes="0; 0.2; 0.4; 0.8; 0.9; 1" keySplines="0 0 1 1; 0.333 0 0.667 1; 0.333 0 0.667 1; 0.333 0 0.667 1; 0 0 1 1" fill="freeze" /><g transform="scale(0,0)"><animateTransform repeatCount="indefinite" type="scale" attributeName="transform" dur="5.005s" begin="0s" calcMode="spline" values="0 0; 0 0; 1 1; 1 1; 0 0; 0 0" keyTimes="0; 0.2; 0.4; 0.8; 0.9; 1" keySplines="0 0 1 1; 0.333 0 0.667 1; 0.333 0 0.833 1; 0.167 0 0.833 1; 0 0 1 1" fill="freeze" /><g transform="translate(-48.72,-34.773)"><g id="i3" transform="matrix(1,0,0,1,54.001,24.796)"><path fill="#fab27a" d="M2.432,2.367C2.756,1.671,2.709,0.65,2.385,-0.649C2.06,-1.948,1.597,-2.831,0.995,-3.295C0.393,-3.759,-0.254,-3.898,-0.949,-3.713C-1.69,-3.527,-2.201,-3.063,-2.479,-2.367C-2.756,-1.671,-2.756,-0.696,-2.432,0.604C-2.108,1.903,-1.645,2.784,-1.043,3.248C-0.441,3.712,0.209,3.898,0.95,3.713C1.598,3.527,2.108,3.109,2.432,2.367Z" /></g><g id="i4" transform="matrix(1,0,0,1,75.979,32.824)"><path fill="#fab27a" d="M-0.973,-3.712C-1.714,-3.526,-2.224,-3.062,-2.502,-2.366C-2.779,-1.67,-2.779,-0.696,-2.455,0.603C-2.131,1.903,-1.668,2.784,-1.066,3.248C-0.464,3.712,0.185,3.898,0.926,3.712C1.621,3.527,2.13,3.063,2.454,2.367C2.779,1.671,2.732,0.65,2.408,-0.649C2.084,-1.949,1.621,-2.83,1.018,-3.294C0.37,-3.758,-0.278,-3.898,-0.973,-3.712Z" /></g><g id="i5" transform="matrix(1,0,0,1,56.664,29.32)"><path fill="#fab27a" fill-rule="evenodd" d="M24.455,-28.282C24.455,-28.282,-22.973,-16.171,-22.973,-16.171C-25.752,-15.475,-27.512,-14.268,-29.179,-11.484C-29.179,-11.484,-38.303,5.917,-38.303,5.917C-40.527,9.675,-39.369,13.99,-35.663,16.217C-35.663,16.217,-19.314,27.076,-19.314,27.076C-16.998,28.468,-14.914,29.071,-11.625,28.236C-11.625,28.236,35.803,16.124,35.803,16.124C38.814,15.335,40.527,11.809,39.647,8.189C39.647,8.189,31.681,-23.131,31.681,-23.131C30.708,-26.797,27.512,-29.071,24.455,-28.282ZM-30.569,13.898C-32.884,14.501,-35.247,13.108,-35.802,10.788C-36.358,8.468,-35.015,6.102,-32.699,5.546C-30.383,4.942,-28.021,6.334,-27.465,8.654C-26.91,10.975,-28.253,13.295,-30.569,13.898ZM-9.448,-2.808C-10.05,-5.174,-9.911,-7.17,-9.031,-8.747C-8.151,-10.325,-6.669,-11.391,-4.631,-11.902C-2.593,-12.412,-0.787,-12.226,0.741,-11.252C2.27,-10.278,3.335,-8.608,3.937,-6.242C4.539,-3.875,4.4,-1.879,3.52,-0.301C2.64,1.276,1.158,2.344,-0.88,2.854C-2.918,3.365,-4.724,3.179,-6.252,2.205C-7.735,1.23,-8.846,-0.441,-9.448,-2.808ZM1.529,15.243C1.529,15.243,9.634,-14.872,9.634,-14.872C9.634,-14.872,14.914,-16.217,14.914,-16.217C14.914,-16.217,6.809,13.898,6.809,13.898C6.809,13.898,1.529,15.243,1.529,15.243ZM25.567,7.68C24.687,9.258,23.205,10.325,21.167,10.835C19.129,11.346,17.323,11.16,15.794,10.186C14.266,9.211,13.201,7.541,12.598,5.174C11.996,2.808,12.135,0.813,13.015,-0.765C13.895,-2.343,15.377,-3.41,17.415,-3.92C19.453,-4.431,21.26,-4.245,22.788,-3.271C24.317,-2.296,25.382,-0.627,25.984,1.74C26.586,4.152,26.447,6.102,25.567,7.68Z" /></g><g id="i1" transform="matrix(1,0,0,1,14.816,52.382)"><path fill="#6e6e6e" d="M-4.654,16.449C-6.553,16.913,-8.267,16.774,-9.749,15.892C-14.566,13.015,-13.964,3.688,-8.359,-5.87C-6.46,-9.026,-4.238,-11.856,-1.876,-14.037C-1.089,-14.779,0.162,-14.687,0.857,-13.898C1.598,-13.109,1.505,-11.856,0.718,-11.16C-1.367,-9.258,-3.358,-6.752,-5.072,-3.921C-9.981,4.338,-9.98,11.206,-7.85,12.505C-6.738,13.154,-4.747,12.598,-2.523,11.066C0.209,9.164,2.987,6.009,5.21,2.25C9.333,-4.757,10.167,-11.299,8.546,-13.573C7.944,-14.455,8.128,-15.661,9.008,-16.311C9.888,-16.914,11.094,-16.728,11.742,-15.847C14.567,-11.81,13.27,-3.782,8.546,4.245C6.045,8.514,2.895,12.041,-0.301,14.268C-1.737,15.335,-3.218,16.078,-4.654,16.449Z" /></g></g></g></g></g><g visibility="hidden" id="i6"><animate repeatCount="indefinite" begin="0s" calcMode="discrete" dur="5.005s" values="hidden; visible; visible; visible" keyTimes="0; 0.4; 0.999999; 1" attributeName="visibility" /><g transform="translate(196.21,195.91)"><animateTransform repeatCount="indefinite" type="translate" attributeName="transform" dur="5.005s" begin="0s" calcMode="spline" values="196.21 195.91; 196.21 195.91; 259.21 148.91; 259.21 148.91; 203.21 243.41; 203.21 243.41" keyTimes="0; 0.4; 0.6; 0.8; 0.893333; 1" keySplines="0 0 1 1; 0.333 0 0.667 1; 0.333 0 0.667 1; 0.333 0 0.667 1; 0 0 1 1" fill="freeze" /><g transform="scale(0,0)"><animateTransform repeatCount="indefinite" type="scale" attributeName="transform" dur="5.005s" begin="0s" calcMode="spline" values="0 0; 0 0; 1 1; 1 1; 0 0; 0 0" keyTimes="0; 0.4; 0.6; 0.8; 0.893333; 1" keySplines="0 0 1 1; 0.333 0 0 1; 0 0 1 1; 0.167 0 0.833 1; 0 0 1 1" fill="freeze" /><g transform="translate(-39.851,-39.994)"><g id="i5" transform="matrix(1,0,0,1,39.851,40.04)"><path fill="#e387e3" fill-rule="evenodd" d="M31.309,21.507C31.309,21.507,37.563,15.243,37.563,15.243C39.6,13.201,39.6,9.907,37.563,7.865C37.563,7.865,7.273,-22.482,7.273,-22.482C7.179,-22.343,7.086,-22.25,6.947,-22.111C5.558,-20.719,3.336,-20.719,1.946,-22.111C0.557,-23.503,0.557,-25.73,1.946,-27.122C2.038,-27.215,2.178,-27.354,2.316,-27.447C2.316,-27.447,-7.874,-37.655,-7.874,-37.655C-9.912,-39.697,-13.201,-39.697,-15.238,-37.655C-15.238,-37.655,-21.492,-31.391,-21.492,-31.391C-18.759,-28.653,-18.759,-24.245,-21.492,-21.554C-24.224,-18.816,-28.624,-18.816,-31.311,-21.554C-31.311,-21.554,-37.562,-15.289,-37.562,-15.289C-39.6,-13.248,-39.6,-9.953,-37.562,-7.912C-37.562,-7.912,-27.374,2.297,-27.374,2.297C-25.984,0.905,-23.761,0.905,-22.372,2.297C-20.982,3.689,-20.982,5.916,-22.372,7.308C-22.372,7.308,7.92,37.655,7.92,37.655C9.957,39.697,13.247,39.697,15.285,37.655C15.285,37.655,21.445,31.344,21.445,31.344C18.712,28.607,18.712,24.199,21.445,21.507C24.178,18.77,28.577,18.77,31.309,21.507ZM-20.102,-0.07C-21.492,-1.462,-21.492,-3.689,-20.102,-5.081C-18.713,-6.473,-16.489,-6.473,-15.1,-5.081C-13.71,-3.689,-13.71,-1.462,-15.1,-0.07C-16.489,1.322,-18.713,1.322,-20.102,-0.07ZM-12.738,-7.401C-14.126,-8.793,-14.126,-11.021,-12.738,-12.413C-11.349,-13.805,-9.125,-13.805,-7.736,-12.413C-6.346,-11.021,-6.346,-8.793,-7.736,-7.401C-9.125,-6.055,-11.349,-6.055,-12.738,-7.401ZM-5.419,-14.779C-6.809,-16.171,-6.809,-18.398,-5.419,-19.791C-4.031,-21.183,-1.806,-21.183,-0.417,-19.791C0.973,-18.398,0.973,-16.171,-0.417,-14.779C-1.806,-13.387,-4.031,-13.387,-5.419,-14.779Z" /></g><g id="i1" transform="matrix(1,0,0,1,21.254,21.247)"><path fill="#d355d3" d="M-1.506,13.712C-0.116,12.32,2.108,12.32,3.497,13.712C3.497,13.712,5.858,11.346,5.858,11.346C4.469,9.953,4.469,7.726,5.858,6.334C7.248,4.942,9.472,4.942,10.861,6.334C10.861,6.334,13.224,3.968,13.224,3.968C11.835,2.575,11.835,0.348,13.224,-1.044C14.614,-2.436,16.836,-2.436,18.226,-1.044C18.226,-1.044,20.588,-3.41,20.588,-3.41C19.199,-4.802,19.199,-7.03,20.588,-8.422C20.681,-8.515,20.82,-8.654,20.959,-8.747C20.959,-8.747,10.769,-18.955,10.769,-18.955C8.732,-20.997,5.443,-20.997,3.405,-18.955C3.405,-18.955,-2.849,-12.691,-2.849,-12.691C-0.116,-9.953,-0.116,-5.545,-2.849,-2.853C-5.581,-0.116,-9.982,-0.116,-12.669,-2.853C-12.669,-2.853,-18.921,3.411,-18.921,3.411C-20.959,5.452,-20.959,8.747,-18.921,10.789C-18.921,10.789,-8.732,20.997,-8.732,20.997C-7.342,19.605,-5.119,19.605,-3.729,20.997C-3.729,20.997,-1.366,18.631,-1.366,18.631C-2.896,17.331,-2.896,15.104,-1.506,13.712Z" /></g></g></g></g></g><g id="i7"><g transform="translate(192.223,200.426)"><animateTransform repeatCount="indefinite" type="translate" attributeName="transform" dur="5.005s" begin="0s" calcMode="spline" values="192.223 200.426; 129.223 230.926; 129.223 230.926; 208.223 240.426; 208.223 240.426" keyTimes="0; 0.2; 0.8; 0.9; 1" keySplines="0.333 0 0.667 1; 0.333 0 0.667 1; 0.333 0 0.667 1; 0 0 1 1" fill="freeze" /><g transform="scale(0,0)"><animateTransform repeatCount="indefinite" type="scale" attributeName="transform" dur="5.005s" begin="0s" calcMode="spline" values="0 0; 1 1; 1 1; 0 0; 0 0" keyTimes="0; 0.2; 0.8; 0.9; 1" keySplines="0.333 0 0 1; 0 0 1 1; 0.167 0 0.833 1; 0 0 1 1" fill="freeze" /><g transform="translate(-31.583,-31.618)"><g id="i8" transform="matrix(1,0,0,1,31.583,31.618)"><path fill="#ff94ff" fill-rule="evenodd" d="M11.417,25.057C-2.386,31.368,-18.735,25.289,-25.034,11.462C-31.333,-2.366,-25.266,-18.747,-11.464,-25.058C2.339,-31.368,18.688,-25.29,24.987,-11.462C31.333,2.366,25.219,18.747,11.417,25.057ZM-10.63,-23.248C-23.413,-17.401,-29.064,-2.181,-23.228,10.627C-17.392,23.434,-2.2,29.093,10.583,23.247C23.366,17.4,29.017,2.18,23.181,-10.627C17.345,-23.434,2.153,-29.095,-10.63,-23.248Z" /></g><g id="i9" transform="matrix(1,0,0,1,13.126,40.086)"><path fill="#ff94ff" d="M0.926,-4.014C0.926,-4.014,1.065,-3.736,1.065,-3.736C1.065,-3.736,-0.371,-2.9,-0.371,-2.9C-0.371,-2.9,-0.51,-3.225,-0.51,-3.225C-0.834,-3.922,-1.251,-4.154,-1.807,-3.876C-2.27,-3.644,-2.455,-3.272,-2.224,-2.669C-2.224,-2.669,-2.131,-2.436,-2.131,-2.436C-1.853,-1.881,-1.344,-1.509,0.092,-1.044C2.038,-0.395,2.918,0.209,3.473,1.415C3.473,1.415,3.705,1.926,3.705,1.926C4.4,3.457,3.798,4.664,2.362,5.313C0.926,5.963,-0.417,5.591,-1.112,4.061C-1.112,4.061,-1.436,3.364,-1.436,3.364C-1.436,3.364,0,2.529,0,2.529C0,2.529,0.324,3.225,0.324,3.225C0.648,3.921,1.111,4.107,1.667,3.875C2.13,3.642,2.408,3.225,2.084,2.483C2.084,2.483,1.945,2.158,1.945,2.158C1.667,1.509,1.158,1.184,-0.278,0.72C-2.224,0.07,-3.104,-0.535,-3.613,-1.695C-3.613,-1.695,-3.706,-1.926,-3.706,-1.926C-4.4,-3.457,-3.891,-4.664,-2.455,-5.314C-1.019,-5.963,0.278,-5.546,0.926,-4.014Z" /></g><g id="i10" transform="matrix(1,0,0,1,17.387,37.348)"><path fill="#ff94ff" d="M-0.047,-3.642C-0.047,-3.642,3.984,5.221,3.984,5.221C3.984,5.221,2.409,5.916,2.409,5.916C2.409,5.916,-1.622,-2.947,-1.622,-2.947C-1.622,-2.947,-3.288,-2.204,-3.288,-2.204C-3.288,-2.204,-3.984,-3.689,-3.984,-3.689C-3.984,-3.689,0.88,-5.916,0.88,-5.916C0.88,-5.916,1.575,-4.431,1.575,-4.431C1.575,-4.431,-0.047,-3.642,-0.047,-3.642Z" /></g><g id="i11" transform="matrix(1,0,0,1,24.264,35.794)"><path fill="#ff94ff" fill-rule="evenodd" d="M2.617,4.223C2.617,4.223,1.228,2.042,1.228,2.042C1.228,2.042,-0.486,2.831,-0.486,2.831C-0.486,2.831,0.255,5.335,0.255,5.335C0.255,5.335,-1.32,6.033,-1.32,6.033C-1.32,6.033,-4.238,-5.105,-4.238,-5.105C-4.238,-5.105,-2.246,-6.033,-2.246,-6.033C-2.246,-6.033,4.238,3.48,4.238,3.48C4.238,3.48,2.617,4.223,2.617,4.223ZM-0.949,1.299C-0.949,1.299,0.348,0.697,0.348,0.697C0.348,0.697,-2.292,-3.342,-2.292,-3.342C-2.292,-3.342,-2.339,-3.342,-2.339,-3.342C-2.339,-3.342,-0.949,1.299,-0.949,1.299Z" /></g><g id="i12" transform="matrix(1,0,0,1,30.54,32.104)"><path fill="#ff94ff" d="M4.122,4.339C4.122,4.339,0.835,-2.807,0.835,-2.807C0.835,-2.807,0.787,-2.807,0.787,-2.807C0.787,-2.807,2.085,3.458,2.085,3.458C2.085,3.458,1.158,3.874,1.158,3.874C1.158,3.874,-2.732,-1.23,-2.732,-1.23C-2.732,-1.23,-2.779,-1.23,-2.779,-1.23C-2.779,-1.23,0.557,5.964,0.557,5.964C0.557,5.964,-0.926,6.659,-0.926,6.659C-0.926,6.659,-5.65,-3.643,-5.65,-3.643C-5.65,-3.643,-3.613,-4.571,-3.613,-4.571C-3.613,-4.571,0.139,0.395,0.139,0.395C0.139,0.395,0.186,0.395,0.186,0.395C0.186,0.395,-1.158,-5.684,-1.158,-5.684C-1.158,-5.684,0.926,-6.659,0.926,-6.659C0.926,-6.659,5.65,3.643,5.65,3.643C5.65,3.643,4.122,4.339,4.122,4.339Z" /></g><g id="i13" transform="matrix(1,0,0,1,36.793,28.926)"><path fill="#ff94ff" fill-rule="evenodd" d="M-1.343,-5.29C0.324,-6.079,1.668,-5.569,2.455,-3.852C2.455,-3.852,2.826,-3.017,2.826,-3.017C3.613,-1.3,3.104,0,1.437,0.788C1.437,0.788,0.742,1.114,0.742,1.114C0.742,1.114,2.687,5.383,2.687,5.383C2.687,5.383,1.112,6.079,1.112,6.079C1.112,6.079,-3.613,-4.223,-3.613,-4.223C-3.613,-4.223,-1.343,-5.29,-1.343,-5.29ZM0.047,-0.418C0.047,-0.418,0.695,-0.696,0.695,-0.696C1.437,-1.021,1.622,-1.578,1.205,-2.46C1.205,-2.46,0.927,-3.063,0.927,-3.063C0.51,-3.945,0,-4.176,-0.741,-3.852C-0.741,-3.852,-1.39,-3.573,-1.39,-3.573C-1.39,-3.573,0.047,-0.418,0.047,-0.418Z" /></g><g id="i14" transform="matrix(1,0,0,1,43.672,26.026)"><path fill="#ff94ff" d="M-2.293,-3.411C-2.293,-3.411,-0.95,-0.488,-0.95,-0.488C-0.95,-0.488,1.32,-1.555,1.32,-1.555C1.32,-1.555,1.968,-0.116,1.968,-0.116C1.968,-0.116,-0.301,0.951,-0.301,0.951C-0.301,0.951,1.088,4.014,1.088,4.014C1.088,4.014,3.913,2.715,3.913,2.715C3.913,2.715,4.562,4.154,4.562,4.154C4.562,4.154,0.162,6.149,0.162,6.149C0.162,6.149,-4.562,-4.153,-4.562,-4.153C-4.562,-4.153,-0.162,-6.149,-0.162,-6.149C-0.162,-6.149,0.486,-4.71,0.486,-4.71C0.486,-4.71,-2.293,-3.411,-2.293,-3.411Z" /></g><g id="i15" transform="matrix(1,0,0,1,49.461,23.544)"><path fill="#ff94ff" fill-rule="evenodd" d="M-2.339,-5.291C-0.672,-6.079,0.671,-5.569,1.459,-3.852C1.459,-3.852,3.775,1.252,3.775,1.252C4.562,2.969,4.053,4.269,2.385,5.058C2.385,5.058,0.162,6.079,0.162,6.079C0.162,6.079,-4.562,-4.223,-4.562,-4.223C-4.562,-4.223,-2.339,-5.291,-2.339,-5.291ZM1.042,3.898C1.042,3.898,1.644,3.62,1.644,3.62C2.385,3.295,2.571,2.737,2.154,1.855C2.154,1.855,-0.07,-3.017,-0.07,-3.017C-0.486,-3.898,-0.996,-4.131,-1.737,-3.806C-1.737,-3.806,-2.339,-3.527,-2.339,-3.527C-2.339,-3.527,1.042,3.898,1.042,3.898Z" /></g><g id="i3" transform="matrix(1,0,0,1,28.017,20.179)"><path fill="#ff94ff" d="M-17.624,13.108C-18.272,4.478,-13.593,-4.107,-5.303,-7.912C3.034,-11.717,12.528,-9.675,18.642,-3.503C18.642,-3.503,20.587,-4.385,20.587,-4.385C13.964,-11.531,3.219,-13.99,-6.09,-9.721C-15.446,-5.452,-20.588,4.292,-19.523,13.99C-19.523,13.99,-17.624,13.108,-17.624,13.108Z" /></g><g id="i4" transform="matrix(1,0,0,1,35.103,43.055)"><path fill="#ff94ff" d="M17.624,-13.109C18.272,-4.478,13.594,4.107,5.303,7.912C-3.034,11.717,-12.529,9.675,-18.643,3.504C-18.643,3.504,-20.588,4.385,-20.588,4.385C-13.965,11.531,-3.219,13.991,6.09,9.722C15.446,5.453,20.588,-4.293,19.523,-13.991C19.523,-13.991,17.624,-13.109,17.624,-13.109Z" /></g><g id="i5" transform="matrix(1,0,0,1,28.526,23.195)"><path fill="#ff94ff" d="M-9.055,5.917C-8.268,2.158,-5.813,-1.137,-2.107,-2.854C1.598,-4.571,5.72,-4.245,9.055,-2.389C9.055,-2.389,11.232,-3.41,11.232,-3.41C7.202,-6.24,1.829,-6.891,-2.941,-4.71C-7.712,-2.529,-10.722,2.019,-11.232,6.891C-11.232,6.891,-9.055,5.917,-9.055,5.917Z" /></g><g id="i1" transform="matrix(1,0,0,1,34.616,40.04)"><path fill="#ff94ff" d="M9.032,-5.916C8.245,-2.158,5.79,1.136,2.085,2.853C-1.621,4.571,-5.789,4.245,-9.078,2.39C-9.078,2.39,-11.255,3.41,-11.255,3.41C-7.225,6.241,-1.852,6.891,2.965,4.71C7.735,2.528,10.746,-2.019,11.255,-6.891C11.255,-6.891,9.032,-5.916,9.032,-5.916Z" /></g></g></g></g></g><g transform="matrix(1,0,0,1,120.658,264.084)" id="i16"><g id="i5" transform="matrix(1,0,0,1,19.333,15.958)"><path fill="#b2937b" d="M19.083,8.654C19.083,8.654,11.441,7.726,9.032,3.456C6.624,-0.812,3.473,-4.942,-1.158,-4.153C-7.689,-3.086,7.828,2.343,2.872,3.688C-2.037,5.034,-2.501,2.343,-6.854,-0.72C-13.061,-5.035,-19.082,-8.654,-18.109,-2.623C-17.137,3.456,-10.699,8.607,-4.307,8.607C2.085,8.654,19.083,8.654,19.083,8.654Z" /></g><g id="i1" transform="matrix(1,0,0,1,158.814,12.384)"><path fill="#b2937b" d="M-19.893,12.042C-19.893,12.042,-11.278,6.66,-6.369,7.866C-1.459,9.026,1.181,12.042,2.802,5.128C4.424,-1.833,6.879,-10.324,8.499,-7.169C10.12,-4.014,6.369,7.123,6.369,7.123C6.369,7.123,11.094,-4.06,13.825,-7.818C16.512,-11.623,19.893,-12.134,17.67,-5.034C15.447,2.019,7.712,12.134,7.712,12.134C7.712,12.134,-19.893,12.134,-19.893,12.134C-19.893,12.134,-19.893,12.042,-19.893,12.042Z" /></g></g><g id="i17"><g transform="translate(207.46,288.291)"><g transform="scale(0,0)"><animateTransform repeatCount="indefinite" type="scale" attributeName="transform" dur="5.005s" begin="0s" calcMode="spline" values="0 0; 1.083 1.083; 1 1; 1 1; 0 0; 0 0" keyTimes="0; 0.2; 0.26; 0.9; 0.993333; 1" keySplines="0.333 0 0 1; 0.333 0 0 1; 0 0 1 1; 0.167 0 0 1; 0 0 1 1" fill="freeze" /><g transform="translate(-31.593,-70.654)"><g id="i14" transform="matrix(1,0,0,1,43.069,14.287)"><path fill="#001e33" d="M-8.129,5.823C-8.129,5.823,-0.717,2.436,0.672,-4.06C3.775,-5.916,7.527,-5.267,7.805,-4.153C8.129,-3.04,5.951,1.787,-2.108,5.731C-5.489,5.916,-8.129,5.823,-8.129,5.823Z" /></g><g id="i15" transform="matrix(1,0,0,1,32.093,45.352)"><path fill="#2b5e82" d="M-31.843,-24.686C-31.843,-24.686,31.749,-25.706,31.749,-25.706C31.749,-25.706,31.843,-13.225,31.843,-13.225C31.843,-13.225,28.368,-13.131,28.368,-13.131C28.368,-13.131,28.692,24.548,28.692,24.548C28.692,24.548,-27.443,25.706,-27.443,25.706C-27.443,25.706,-28.184,-11.878,-28.184,-11.878C-28.184,-11.878,-31.611,-12.019,-31.611,-12.019C-31.611,-12.019,-31.843,-24.686,-31.843,-24.686Z" /></g><g id="i3" transform="matrix(1,0,0,1,33.482,34.518)"><path fill="#154d75" d="M-27.025,-1.184C-27.025,-1.184,26.98,-2.297,26.98,-2.297C26.98,-2.297,27.025,2.297,27.025,2.297C27.025,2.297,-27.025,-1.184,-27.025,-1.184Z" /></g><g id="i4" transform="matrix(1,0,0,1,31.768,44.471)"><path fill="#0b466f" d="M-2.988,26.077C-2.988,26.077,3.683,25.938,3.683,25.938C3.683,25.938,3.173,-24.686,3.173,-24.686C3.173,-25.475,2.525,-26.077,1.737,-26.077C1.737,-26.077,-2.34,-25.939,-2.34,-25.939C-3.081,-25.893,-3.683,-25.289,-3.683,-24.548C-3.683,-24.548,-2.988,26.077,-2.988,26.077Z" /></g><g id="i5" transform="matrix(1,0,0,1,19.981,14.634)"><path fill="#001e33" d="M8.059,5.569C8.059,5.569,2.547,4.733,-0.602,-2.83C-4.307,-5.893,-7.874,-3.016,-7.874,-3.016C-7.874,-3.016,-8.059,1.3,0.463,5.707C5.419,5.893,8.059,5.569,8.059,5.569Z" /></g><g id="i1" transform="matrix(1,0,0,1,31.536,10.018)"><path fill="#0b466f" d="M-1.135,9.025C-1.135,9.025,-5.906,-0.024,-19.384,1.6C-19.245,-1.833,-16.79,-5.174,-15.956,-6.288C-15.076,-7.402,-10.491,-7.68,-6.832,-3.736C-3.127,0.255,-0.95,4.013,-0.209,5.544C1.088,3.595,3.683,-1.833,6.23,-4.107C8.778,-6.381,13.873,-9.768,15.54,-7.68C17.207,-5.592,18.921,-3.365,19.384,0.115C13.78,-1.555,4.47,1.647,0.858,9.117C-0.022,9.767,-1.135,9.025,-1.135,9.025Z" /></g></g></g></g></g><g id="i18"><g transform="translate(168.099,176.392)"><g transform="rotate(7)"><animateTransform repeatCount="indefinite" type="rotate" attributeName="transform" dur="5.005s" begin="0s" calcMode="spline" values="7; 0; 0; 7; 7" keyTimes="0; 0.2; 0.8; 0.993333; 1" keySplines="0.333 0 0.667 1; 0.333 0 0.833 1; 0.167 0 0.667 1; 0 0 1 1" fill="freeze" /><g transform="scale(1,1) translate(-2.859,-1.163)"><g id="i12" transform="matrix(1,0,0,1,12.87,13.866)"><path fill="#2c4f68" d="M-1.042,7.491C-5.442,-7.822,-9.796,-13.111,-9.796,-13.111C-12.62,-13.616,-11.648,-7.588,-11.126,-4.352C-10.224,1.229,-6.746,7.987,-5.72,10.043C-4.099,13.291,12.62,13.616,12.62,13.616C12.389,12.549,12.204,11.667,12.204,10.553C12.204,10.553,-1.042,7.491,-1.042,7.491Z" /></g><g id="i13" transform="matrix(1,0,0,1,28.988,23.26)"><path fill="#f2b688" d="M-4.377,1.021C-4.377,1.021,-3.358,-1.161,-2.154,-1.718C-0.903,-2.275,2.617,-4.316,3.312,-3.62C4.006,-2.924,4.377,0.139,1.135,2.692C-0.903,4.316,-3.59,4.269,-3.59,4.269C-3.59,4.269,-4.377,1.021,-4.377,1.021Z" /></g><g id="i14" transform="matrix(1,0,0,1,30.169,22.819)"><path fill="#323f49" d="M6.114,-2.436C6.114,-2.436,-0.926,3.411,-0.926,3.411C-1.204,3.643,-1.667,3.689,-1.945,3.504C-1.945,3.504,-5.928,1.276,-5.928,1.276C-6.067,1.183,-6.114,1.091,-6.16,0.998C-6.16,0.998,-6.16,0.951,-6.16,0.951C-6.16,0.951,-6.299,0.255,-6.299,0.255C-6.299,0.255,-5.187,-0.116,-5.187,-0.116C-5.187,-0.116,5.512,-3.503,5.512,-3.503C5.512,-3.503,6.114,-3.689,6.114,-3.689C6.114,-3.689,6.299,-2.946,6.299,-2.946C6.299,-2.946,6.299,-2.9,6.299,-2.9C6.299,-2.668,6.253,-2.529,6.114,-2.436Z" /></g><g id="i15" transform="matrix(1,0,0,1,30.332,20.058)"><path fill="#20272c" d="M5.35,-0.65C5.35,-0.65,-5.35,2.738,-5.35,2.738C-5.35,2.738,0.904,-2.46,0.904,-2.46C1.181,-2.692,1.645,-2.737,1.923,-2.551C1.923,-2.551,5.35,-0.65,5.35,-0.65Z" /></g><g id="i3" transform="matrix(1,0,0,1,30.1,21.196)"><path fill="#44545f" d="M-2.015,4.431C-2.015,4.431,-5.998,2.204,-5.998,2.204C-6.276,2.018,-6.323,1.74,-6.045,1.508C-6.045,1.508,0.997,-4.339,0.997,-4.339C1.274,-4.571,1.738,-4.617,2.015,-4.432C2.015,-4.432,5.999,-2.205,5.999,-2.205C6.277,-2.019,6.323,-1.74,6.045,-1.508C6.045,-1.508,-0.996,4.338,-0.996,4.338C-1.274,4.57,-1.737,4.617,-2.015,4.431Z" /></g><g id="i4" transform="matrix(1,0,0,1,30.331,20.987)"><path fill="#fdf2fd" d="M-1.691,3.527C-1.691,3.527,-4.748,1.81,-4.748,1.81C-5.026,1.625,-5.072,1.346,-4.794,1.114C-4.794,1.114,0.672,-3.434,0.672,-3.434C0.95,-3.666,1.413,-3.713,1.691,-3.527C1.691,-3.527,4.748,-1.809,4.748,-1.809C5.026,-1.624,5.072,-1.346,4.794,-1.114C4.794,-1.114,-0.672,3.434,-0.672,3.434C-0.95,3.666,-1.413,3.713,-1.691,3.527Z" /></g><g id="i5" transform="matrix(1,0,0,1,26.557,20.963)"><path fill="#f2b688" d="M0.278,-0.58C0.278,-0.58,0.973,-0.441,1.019,0.209C1.065,0.812,0.417,0.534,0,0.395C-0.417,0.255,-0.834,0.348,-0.88,0.395C-1.065,0.626,-0.972,-0.812,0.278,-0.58Z" /></g><g id="i1" transform="matrix(1,0,0,1,31.513,23.585)"><path fill="#f2b688" d="M1.065,-1.578C0.602,-2.32,-1.205,-1.253,-1.621,0.742C-1.76,1.438,-1.343,2.32,-1.343,2.32C-0.788,1.856,0.046,1.252,0.695,0.464C1.76,-0.696,1.389,-1.114,1.065,-1.578Z" /></g></g></g></g></g><g transform="matrix(1,0,0,1,142.173,174.81)" id="i19"><g id="i20" transform="matrix(1,0,0,1,25.167,74.558)"><path fill="#272f35" d="M6.484,1.508C6.484,1.508,3.938,32.226,3.938,32.226C3.938,32.226,-0.555,32.226,-0.555,32.226C-1.574,20.254,-3.798,4.432,-0.324,0.163C-6.485,-14.269,-4.678,-28.885,-4.678,-28.885C-1.251,-30.462,4.076,-32.226,4.076,-32.226C5.882,-21.924,6.484,1.508,6.484,1.508Z" /></g><g id="i21" transform="matrix(1,0,0,1,32.022,107.666)"><path fill="#ff7100" d="M7.457,6.311C7.457,6.311,-7.179,6.311,-7.179,6.311C-7.874,6.311,-8.429,5.799,-8.522,5.15C-8.522,5.15,-8.522,4.872,-8.522,4.872C-8.522,4.872,-7.92,-2.831,-7.92,-2.831C-7.92,-2.831,-7.318,-3.11,-6.438,-3.296C-5.928,-3.435,-5.512,-3.759,-5.373,-4.27C-5.373,-4.316,-5.373,-4.363,-5.326,-4.363C-5.002,-5.847,-2.871,-6.31,-2.455,-4.872C-2.408,-4.687,-2.362,-4.502,-2.316,-4.316C-2.316,-4.27,-2.316,-4.224,-2.269,-4.178C-2.223,-3.853,-2.177,-3.575,-2.13,-3.342C-2.038,-2.692,-2.038,-2.275,-2.038,-2.275C-1.853,-2.043,-1.667,-1.764,-1.482,-1.532C-1.389,-1.393,-1.297,-1.3,-1.204,-1.161C-1.019,-0.929,-0.834,-0.651,-0.648,-0.419C-0.556,-0.326,-0.463,-0.186,-0.417,-0.094C-0.231,0.138,0,0.418,0.185,0.65C0.278,0.742,0.371,0.835,0.463,0.928C1.204,1.716,1.992,2.273,2.872,2.367C4.446,2.599,7.04,2.737,8.291,5.103C8.337,5.151,8.337,5.197,8.337,5.243C8.522,5.708,8.059,6.311,7.457,6.311Z" /></g><g id="i22" transform="matrix(1,0,0,1,32.022,113.397)"><path fill="#8d623f" d="M7.457,0.58C7.457,0.58,-7.179,0.58,-7.179,0.58C-7.874,0.58,-8.429,0.069,-8.522,-0.58C-8.522,-0.58,8.291,-0.58,8.291,-0.58C8.522,-0.023,8.059,0.58,7.457,0.58Z" /></g><g id="i23" transform="matrix(1,0,0,1,29.868,106.738)"><path fill="#fdf2fd" d="M0.857,-0.326C0.672,-0.094,0.347,0.232,-0.347,0.51C-0.486,0.557,-0.579,0.603,-0.718,0.65C-0.718,0.65,-0.857,0.277,-0.857,0.277C-0.718,0.231,-0.579,0.185,-0.486,0.139C0.301,-0.186,0.533,-0.512,0.579,-0.65C0.718,-0.558,0.811,-0.418,0.857,-0.326Z" /></g><g id="i24" transform="matrix(1,0,0,1,29.057,107.202)"><path fill="#fdf2fd" d="M0.463,-0.001C0.463,0.231,0.278,0.464,0,0.464C-0.231,0.464,-0.463,0.278,-0.463,-0.001C-0.463,-0.233,-0.278,-0.465,0,-0.465C0.278,-0.465,0.463,-0.279,0.463,-0.001Z" /></g><g id="i25" transform="matrix(1,0,0,1,30.748,107.759)"><path fill="#fdf2fd" d="M0.811,-0.279C0.626,-0.093,0.302,0.139,-0.208,0.371C-0.347,0.419,-0.486,0.511,-0.671,0.557C-0.671,0.557,-0.811,0.186,-0.811,0.186C-0.672,0.139,-0.532,0.093,-0.393,0.047C0.116,-0.185,0.394,-0.371,0.533,-0.557C0.626,-0.511,0.718,-0.419,0.811,-0.279Z" /></g><g id="i26" transform="matrix(1,0,0,1,30.122,108.083)"><path fill="#fdf2fd" d="M0.463,0.001C0.463,0.233,0.278,0.465,0,0.465C-0.231,0.465,-0.463,0.279,-0.463,0.001C-0.463,-0.232,-0.278,-0.464,0,-0.464C0.231,-0.464,0.463,-0.278,0.463,0.001Z" /></g><g id="i27" transform="matrix(1,0,0,1,31.652,108.756)"><path fill="#fdf2fd" d="M0.788,-0.255C0.603,-0.069,0.278,0.162,-0.186,0.348C-0.325,0.394,-0.463,0.487,-0.649,0.534C-0.649,0.534,-0.788,0.162,-0.788,0.162C-0.649,0.116,-0.463,0.069,-0.371,0.023C0.092,-0.163,0.325,-0.348,0.51,-0.534C0.603,-0.488,0.695,-0.348,0.788,-0.255Z" /></g><g id="i28" transform="matrix(1,0,0,1,31.003,109.057)"><path fill="#fdf2fd" d="M0.463,-0.001C0.463,0.232,0.278,0.465,0,0.465C-0.231,0.465,-0.463,0.278,-0.463,-0.001C-0.463,-0.233,-0.278,-0.464,0,-0.464C0.278,-0.464,0.463,-0.233,0.463,-0.001Z" /></g><g id="i29" transform="matrix(1,0,0,1,29.197,103.906)"><path fill="#fdf2fd" d="M0.648,0.372C0,0.372,-0.648,0.464,-0.648,0.464C-0.648,0.464,-0.648,-0.278,-0.648,-0.278C-0.232,-0.418,0.139,-0.464,0.509,-0.464C0.555,-0.186,0.602,0.093,0.648,0.372Z" /></g><g id="i30" transform="matrix(1,0,0,1,15.141,75.532)"><path fill="#38444d" d="M6.693,-29.907C6.693,-29.907,5.628,-13.526,3.497,0.58C3.034,3.597,2.478,22.899,1.089,31.206C1.089,31.206,-3.405,31.206,-3.405,31.206C-3.405,31.206,-4.285,1.045,-4.285,1.045C-4.285,1.045,-6.693,-18.214,-4.47,-31.206C-4.47,-31.206,6.693,-29.907,6.693,-29.907Z" /></g><g id="i31" transform="matrix(1,0,0,1,15.025,108.803)"><path fill="#ff7100" d="M5.095,4.152C4.956,6.752,-3.103,5.823,-4.354,5.08C-4.863,4.802,-5.048,4.199,-5.095,3.503C-5.141,2.39,-4.77,0.951,-4.492,-0.162C-3.983,-1.973,-4.029,-1.926,-3.705,-3.179C-3.705,-3.179,-3.798,-5.221,-1.158,-5.963C1.482,-6.752,2.455,-1.694,2.918,-0.719C3.335,0.162,4.956,1.368,5.095,3.549C5.095,3.735,5.141,3.968,5.095,4.152Z" /></g><g id="i32" transform="matrix(1,0,0,1,14.423,106.297)"><path fill="#fdf2fd" d="M-1.992,0.951C-1.992,0.951,-2.223,0.627,-2.223,0.627C-2.13,0.58,0.185,-0.951,2.223,-0.024C2.223,-0.024,2.085,0.348,2.085,0.348C0.279,-0.487,-1.946,0.951,-1.992,0.951Z" /></g><g id="i33" transform="matrix(1,0,0,1,14.655,108.57)"><path fill="#fdf2fd" d="M-1.992,0.952C-1.992,0.952,-2.223,0.627,-2.223,0.627C-2.13,0.581,0.185,-0.951,2.223,-0.023C2.223,-0.023,2.085,0.349,2.085,0.349C0.278,-0.533,-1.946,0.906,-1.992,0.952Z" /></g><g id="i34" transform="matrix(1,0,0,1,14.562,107.411)"><path fill="#fdf2fd" d="M-1.992,0.951C-1.992,0.951,-2.223,0.627,-2.223,0.627C-2.13,0.58,0.185,-0.951,2.223,-0.024C2.223,-0.024,2.085,0.348,2.085,0.348C0.279,-0.487,-1.992,0.951,-1.992,0.951Z" /></g><g id="i35" transform="matrix(1,0,0,1,12.339,107.155)"><path fill="#fdf2fd" d="M0.417,0C0.417,0.232,0.231,0.417,-0.001,0.417C-0.232,0.417,-0.417,0.232,-0.417,0C-0.417,-0.232,-0.232,-0.417,-0.001,-0.417C0.231,-0.417,0.417,-0.232,0.417,0Z" /></g><g id="i36" transform="matrix(1,0,0,1,12.385,108.223)"><path fill="#fdf2fd" d="M0.417,0C0.417,0.232,0.231,0.417,-0.001,0.417C-0.232,0.417,-0.417,0.232,-0.417,0C-0.417,-0.233,-0.232,-0.417,-0.001,-0.417C0.231,-0.417,0.417,-0.233,0.417,0Z" /></g><g id="i8" transform="matrix(1,0,0,1,12.617,109.29)"><path fill="#fdf2fd" d="M0.417,0C0.417,0.232,0.231,0.417,-0.001,0.417C-0.232,0.417,-0.417,0.232,-0.417,0C-0.417,-0.232,-0.232,-0.417,-0.001,-0.417C0.185,-0.417,0.417,-0.232,0.417,0Z" /></g><g id="i9" transform="matrix(1,0,0,1,16.878,108.639)"><path fill="#fdf2fd" d="M0.417,0C0.417,0.233,0.231,0.417,-0.001,0.417C-0.232,0.417,-0.417,0.233,-0.417,0C-0.417,-0.232,-0.232,-0.417,-0.001,-0.417C0.231,-0.417,0.417,-0.232,0.417,0Z" /></g><g id="i10" transform="matrix(1,0,0,1,16.739,107.48)"><path fill="#fdf2fd" d="M0.417,0.001C0.417,0.233,0.231,0.418,-0.001,0.418C-0.232,0.418,-0.417,0.233,-0.417,0.001C-0.417,-0.232,-0.232,-0.418,-0.001,-0.418C0.231,-0.418,0.417,-0.232,0.417,0.001Z" /></g><g id="i11" transform="matrix(1,0,0,1,16.647,106.32)"><path fill="#fdf2fd" d="M0.417,0C0.417,0.232,0.231,0.417,-0.001,0.417C-0.232,0.417,-0.417,0.232,-0.417,0C-0.417,-0.232,-0.232,-0.417,-0.001,-0.417C0.231,-0.417,0.417,-0.232,0.417,0Z" /></g><g id="i12" transform="matrix(1,0,0,1,15.048,113.93)"><path fill="#8d623f" d="M5.072,-0.975C4.933,1.623,-3.126,0.697,-4.377,-0.046C-4.886,-0.324,-5.071,-0.928,-5.118,-1.624C-4.284,-1.161,-2.802,-0.558,-0.532,-0.51C2.2,-0.464,4.192,-1.021,5.118,-1.624C5.072,-1.392,5.118,-1.161,5.072,-0.975Z" /></g><g id="i13" transform="matrix(1,0,0,1,14.029,104.21)"><path fill="#fdf2fd" d="M0.996,-0.581C0.996,-0.581,-0.208,-0.719,-1.274,-0.116C-1.274,-0.116,-1.135,0.719,-1.135,0.719C-1.135,0.719,0.348,0.301,1.274,0.347C1.274,0.347,1.274,-0.21,0.996,-0.581Z" /></g><g id="i14" transform="matrix(1,0,0,1,19.841,47.042)"><path fill="#38444d" d="M-8.754,-6.102C-9.217,-3.782,-9.588,0.162,-8.383,4.06C-8.383,4.06,-0.184,6.102,5.605,1.508C9.403,-1.508,9.588,-5.035,9.542,-6.102C9.542,-6.102,-8.754,-6.102,-8.754,-6.102Z" /></g><g id="i15" transform="matrix(1,0,0,1,4.21,47.737)"><path fill="#f2b688" d="M0.486,-5.406C0.486,-5.406,1.551,-4.43,2.107,-3.363C2.663,-2.296,3.219,-1.183,3.543,-0.534C3.96,0.255,3.126,0.302,2.524,-0.255C1.644,-1.091,1.505,-1.74,1.505,-1.74C1.505,-1.74,2.756,2.854,2.617,4.106C2.478,5.267,-0.811,5.823,-2.941,3.271C-3.405,2.714,-3.96,-3.225,-2.339,-5.545C-2.339,-5.592,-0.023,-5.824,0.486,-5.406Z" /></g><g id="i3" transform="matrix(1,0,0,1,6.942,22.846)"><path fill="#2b5e82" d="M6.045,-12.485C3.775,-5.153,0.764,-0.189,-0.255,1.436C-0.301,2.456,-0.671,7.329,-1.273,11.969C-1.69,15.031,-1.83,17.955,-1.876,19.857C-3.08,20.414,-4.285,20.368,-5.535,19.857C-6.045,12.062,-5.673,5.658,-4.562,0.925C-4.608,-5.246,2.342,-20.414,2.342,-20.414C5.352,-18.187,6.045,-12.485,6.045,-12.485Z" /></g><g id="i4" transform="matrix(1,0,0,1,19.959,23.568)"><path fill="#2b5e82" d="M10.676,17.795C0.718,22.899,-9.24,18.63,-9.24,18.63C-7.851,9.953,-6.276,3.596,-7.11,-1.462C-8.082,-7.308,-10.676,-21.136,-10.676,-21.136C-9.055,-22.157,-8.314,-21.879,-6.461,-22.389C-5.952,-22.528,-5.442,-22.621,-5.072,-22.714C-3.95,-21.973,-0.909,-20.902,-0.909,-20.902C1.592,-21.227,2.475,-21.331,3.358,-22.899C3.358,-22.899,3.404,-22.899,3.404,-22.899C5.072,-22.667,6.183,-22.435,6.183,-22.435C6.183,-22.435,6.971,-16.635,8.592,-13.712C10.259,-10.789,8.962,-9.025,8.592,-7.726C8.499,-7.494,8.453,-7.169,8.453,-6.752C8.36,-5.174,8.221,2.39,8.221,2.39C8.221,2.39,10.676,17.795,10.676,17.795Z" /></g><g id="i5" transform="matrix(1,0,0,1,19.566,3.267)"><path fill="#f2b688" d="M1.806,2.924C-0.927,3.017,-3.381,-0.047,-4.678,-2.413C-3.845,-2.599,-3.289,-2.692,-3.289,-2.692C-0.788,-3.017,1.852,-2.831,3.751,-2.599C3.751,-2.599,3.798,-2.599,3.798,-2.599C4.122,-0.232,4.678,2.831,1.806,2.924Z" /></g><g id="i1" transform="matrix(1,0,0,1,23.525,17.628)"><path fill="#2c4f68" d="M4.979,-1.74C4.886,-1.508,4.84,-1.183,4.84,-0.766C0.023,1.74,-4.979,0.302,-4.979,0.302C1.505,0.209,4.979,-1.74,4.979,-1.74Z" /></g></g><g id="i37"><g transform="translate(160.56,176.574)"><g transform="rotate(7)"><animateTransform repeatCount="indefinite" type="rotate" attributeName="transform" dur="5.005s" begin="0s" calcMode="spline" values="7; 0; 7; 0; 0; 7; 7" keyTimes="0; 0.2; 0.4; 0.6; 0.8; 0.993333; 1" keySplines="0.333 0 0.667 1; 0.333 0 0.667 1; 0.333 0 0.667 1; 0.333 0 0.833 1; 0.167 0 0.667 1; 0 0 1 1" fill="freeze" /><g transform="scale(1,1) translate(-12.922,-26.083)"><g id="i10" transform="matrix(1,0,0,1,11.922,12.732)"><path fill="#323f49" d="M11.44,7.192C11.672,8.027,10.699,10.115,8.8,10.997C6.947,11.925,5.65,12.018,3.983,12.111C1.574,12.25,0.695,11.275,0.695,11.275C0.695,11.275,-0.973,11.554,-0.973,11.554C-1.297,11.739,-2.038,11.879,-4.725,12.203C-7.133,12.482,-9.866,10.765,-9.541,9.419C-8.43,4.779,-11.672,-0.975,-9.68,-5.383C-8.198,-8.631,-7.04,-9.373,-6.948,-9.42C-4.725,-11.508,-1.436,-12.482,2.13,-12.25C5.187,-12.065,7.132,-10.905,8.383,-9.837C9.587,-8.863,11.208,-6.914,10.514,-3.666C9.263,2.181,10.653,4.362,11.44,7.192Z" /></g><g id="i11" transform="matrix(1,0,0,1,20.56,13.451)"><path fill="#ff8e3a" d="M-2.015,-1.508C-2.015,-1.508,-0.44,-3.318,0.857,-1.74C2.014,-0.348,1.273,3.318,-1.459,3.179C-1.459,3.179,-2.015,-1.508,-2.015,-1.508Z" /></g><g id="i12" transform="matrix(1,0,0,1,20.351,16.398)"><path fill="#fdf2fd" d="M0.648,0C0.648,0.371,0.37,0.65,0,0.65C-0.37,0.65,-0.648,0.371,-0.648,0C-0.648,-0.371,-0.37,-0.65,0,-0.65C0.37,-0.65,0.648,-0.371,0.648,0Z" /></g><g id="i13" transform="matrix(1,0,0,1,12.964,23.845)"><path fill="#f2b688" d="M2.71,1.926C2.571,3.596,-0.857,4.571,-2.803,1.74C-2.803,1.74,-2.988,-1.88,-2.988,-1.88C-2.988,-1.88,-3.127,-4.571,-3.127,-4.571C-3.127,-4.571,3.127,-3.365,3.127,-3.365C3.127,-3.365,2.803,0.859,2.803,0.859C2.803,0.859,2.71,1.926,2.71,1.926Z" /></g><g id="i14" transform="matrix(1,0,0,1,12.964,22.267)"><path fill="#ff8e3a" d="M2.756,2.947C0.625,2.993,-1.738,1.509,-2.942,0.488C-2.942,0.488,-3.127,-2.993,-3.127,-2.993C-3.127,-2.993,3.127,-1.787,3.127,-1.787C3.127,-1.787,2.756,2.947,2.756,2.947Z" /></g><g id="i15" transform="matrix(1,0,0,1,13.427,13.614)"><path fill="#f2b688" d="M-0.116,8.816C-6.693,7.285,-7.897,-1.346,-7.897,-1.346C-7.897,-1.346,-7.897,-1.903,-7.805,-2.785C-7.758,-3.249,-7.666,-3.805,-7.48,-4.362C-7.017,-6.033,-5.998,-7.935,-3.821,-8.77C-3.775,-8.817,-3.682,-8.817,-3.636,-8.863C-0.023,-10.162,5.21,-9.559,6.831,-4.78C6.924,-4.501,7.017,-4.177,7.063,-3.852C7.109,-3.666,7.156,-3.481,7.156,-3.249C7.897,1.717,5.813,10.162,-0.116,8.816Z" /></g><g id="i3" transform="matrix(1,0,0,1,5.391,14.982)"><path fill="#f2b688" d="M1.251,-2.529C1.251,-2.529,-1.112,-3.828,-1.853,-1.647C-2.502,0.255,-0.37,3.828,2.502,2.668C2.502,2.668,1.251,-2.529,1.251,-2.529Z" /></g><g id="i4" transform="matrix(1,0,0,1,5.738,14.959)"><path fill="#ff8e3a" d="M1.089,1.068C0.904,0.465,0.301,-0.836,-1.135,-1.439C-1.135,-1.439,0.394,0.001,0.533,1.161C0.533,1.3,0.672,1.439,0.811,1.439C0.811,1.439,0.857,1.439,0.857,1.439C0.996,1.439,1.135,1.254,1.089,1.068Z" /></g><g id="i5" transform="matrix(1,0,0,1,13.358,7.233)"><path fill="#323f49" d="M-3.52,0.441C-3.52,0.441,-3.52,3.828,-6.206,6.195C-6.206,6.195,-6.438,4.664,-8.522,4.896C-8.522,4.896,-8.707,4.524,-9.032,2.808C-9.356,1.044,-8.244,-6.148,-0.278,-5.684C-0.278,-5.684,2.27,-6.195,5.79,-3.178C9.356,-0.162,7.225,3.179,7.225,3.179C7.225,3.179,0.973,4.756,-3.52,0.441Z" /></g><g id="i1" transform="matrix(1,0,0,1,6.178,17.882)"><path fill="#fdf2fd" d="M0,0.65C0.358,0.65,0.648,0.358,0.648,-0.001C0.648,-0.359,0.358,-0.65,0,-0.65C-0.358,-0.65,-0.648,-0.359,-0.648,-0.001C-0.648,0.358,-0.358,0.65,0,0.65Z" /></g></g></g></g></g><g id="i38"><g transform="translate(239.071,169.033)"><g transform="rotate(0)"><animateTransform repeatCount="indefinite" type="rotate" attributeName="transform" dur="5.005s" begin="0s" calcMode="spline" values="0; 10; 10; 0; 0" keyTimes="0; 0.2; 0.8; 0.993333; 1" keySplines="0.333 0 0.667 1; 0.333 0 0.833 1; 0.167 0 0.667 1; 0 0 1 1" fill="freeze" /><g transform="scale(1,1) translate(-22.306,-1.558)"><g id="i5" transform="matrix(1,0,0,1,5.136,45.655)"><path fill="#f2b688" d="M2.339,-4.71C2.339,-4.71,0.903,-4.432,-0.255,-3.875C-1.413,-3.364,-2.802,-2.668,-3.543,-2.297C-4.423,-1.88,-3.728,-1.276,-2.432,-1.648C-1.876,-1.787,-1.505,-1.972,-1.505,-1.972C-1.505,-1.972,-4.516,0.209,-4.608,1.276C-4.886,3.921,-4.331,4.385,-0.394,4.663C0.347,4.71,4.701,0.069,4.84,-2.993C4.886,-2.993,3.081,-4.71,2.339,-4.71Z" /></g><g id="i1" transform="matrix(1,0,0,1,16.437,21.688)"><path fill="#cd84cd" d="M0.116,2.413C2.107,-14.617,5.952,-21.438,5.952,-21.438C9.425,-7.192,6.694,0.557,5.536,4.315C4.377,8.028,-6.414,21.438,-6.414,21.438C-7.248,20.37,-8.36,19.628,-9.425,19.396C-9.425,19.396,-5.998,13.364,-4.793,11.137C-3.589,8.863,0.116,2.413,0.116,2.413Z" /></g></g></g></g></g><g transform="matrix(1,0,0,1,224.315,140.424)" id="i39"><g id="i40" transform="matrix(1,0,0,1,15.789,105.837)"><path fill="#323f49" d="M-5.997,1.462C-5.997,1.462,-3.266,34.5,-3.266,34.5C-3.266,34.5,1.551,34.5,1.551,34.5C2.662,21.646,4.47,10.325,2.433,1.462C4.47,-8.561,5.997,-31.298,5.997,-31.298C2.338,-32.968,-3.544,-34.5,-3.544,-34.5C-5.536,-23.41,-5.997,1.462,-5.997,1.462Z" /></g><g id="i41" transform="matrix(1,0,0,1,9.397,141.265)"><path fill="#365972" d="M-8.036,6.821C-8.036,6.821,7.713,6.821,7.713,6.821C8.453,6.821,9.055,6.264,9.148,5.567C9.148,5.567,9.148,5.243,9.148,5.243C9.148,5.243,8.499,-3.016,8.499,-3.016C8.499,-3.016,7.851,-3.342,6.925,-3.527C6.369,-3.666,5.905,-4.037,5.767,-4.594C5.767,-4.64,5.767,-4.687,5.721,-4.734C5.35,-6.311,3.08,-6.821,2.664,-5.291C2.617,-5.105,2.571,-4.872,2.524,-4.687C2.524,-4.64,2.523,-4.594,2.477,-4.548C2.431,-4.223,2.339,-3.897,2.339,-3.619C2.247,-2.924,2.247,-2.505,2.247,-2.505C2.061,-2.228,1.83,-1.996,1.645,-1.717C1.552,-1.578,1.459,-1.485,1.367,-1.346C1.181,-1.067,0.95,-0.836,0.765,-0.558C0.673,-0.418,0.578,-0.325,0.486,-0.232C0.254,0.046,0.068,0.279,-0.162,0.556C-0.256,0.65,-0.348,0.788,-0.44,0.882C-1.274,1.717,-2.061,2.32,-3.035,2.459C-4.748,2.691,-7.528,2.877,-8.87,5.383C-8.917,5.429,-8.917,5.475,-8.917,5.521C-9.148,6.172,-8.731,6.821,-8.036,6.821Z" /></g><g id="i42" transform="matrix(1,0,0,1,9.398,147.459)"><path fill="#917259" d="M-8.037,0.627C-8.037,0.627,7.712,0.627,7.712,0.627C8.452,0.627,9.054,0.07,9.147,-0.627C9.147,-0.627,-8.963,-0.627,-8.963,-0.627C-9.147,-0.022,-8.731,0.627,-8.037,0.627Z" /></g><g id="i43" transform="matrix(1,0,0,1,11.69,140.268)"><path fill="#fdf2fd" d="M-0.926,-0.302C-0.742,-0.024,-0.37,0.301,0.37,0.579C0.51,0.626,0.648,0.673,0.788,0.719C0.788,0.719,0.926,0.301,0.926,0.301C0.788,0.255,0.648,0.208,0.51,0.162C-0.37,-0.162,-0.602,-0.534,-0.648,-0.719C-0.742,-0.581,-0.834,-0.442,-0.926,-0.302Z" /></g><g id="i44" transform="matrix(1,0,0,1,12.522,140.801)"><path fill="#fdf2fd" d="M0.001,0.511C0.281,0.511,0.509,0.282,0.509,0C0.509,-0.281,0.281,-0.511,0.001,-0.511C-0.281,-0.511,-0.509,-0.281,-0.509,0C-0.509,0.282,-0.281,0.511,0.001,0.511Z" /></g><g id="i45" transform="matrix(1,0,0,1,10.741,141.334)"><path fill="#fdf2fd" d="M-0.857,-0.255C-0.673,-0.023,-0.301,0.209,0.207,0.441C0.347,0.487,0.533,0.579,0.717,0.626C0.717,0.626,0.857,0.21,0.857,0.21C0.671,0.162,0.533,0.115,0.393,0.023C-0.163,-0.21,-0.441,-0.441,-0.579,-0.626C-0.673,-0.487,-0.765,-0.347,-0.857,-0.255Z" /></g><g id="i46" transform="matrix(1,0,0,1,11.457,141.729)"><path fill="#fdf2fd" d="M-0.509,0C-0.509,0.278,-0.277,0.51,0.001,0.51C0.279,0.51,0.509,0.278,0.509,0C0.509,-0.279,0.279,-0.511,0.001,-0.511C-0.277,-0.465,-0.509,-0.232,-0.509,0Z" /></g><g id="i47" transform="matrix(1,0,0,1,9.814,142.448)"><path fill="#fdf2fd" d="M-0.857,-0.255C-0.671,-0.069,-0.347,0.162,0.209,0.394C0.347,0.442,0.533,0.534,0.718,0.58C0.718,0.58,0.857,0.162,0.857,0.162C0.671,0.116,0.533,0.07,0.393,-0.023C-0.115,-0.209,-0.393,-0.441,-0.533,-0.58C-0.671,-0.487,-0.765,-0.347,-0.857,-0.255Z" /></g><g id="i48" transform="matrix(1,0,0,1,10.485,142.797)"><path fill="#fdf2fd" d="M-0.509,0C-0.509,0.279,-0.277,0.51,-0.001,0.51C0.277,0.51,0.509,0.279,0.509,0C0.509,-0.278,0.277,-0.51,-0.001,-0.51C-0.277,-0.464,-0.509,-0.232,-0.509,0Z" /></g><g id="i49" transform="matrix(1,0,0,1,12.43,137.251)"><path fill="#fdf2fd" d="M-0.694,0.394C0.046,0.394,0.694,0.486,0.694,0.486C0.694,0.486,0.694,-0.303,0.694,-0.303C0.278,-0.441,-0.184,-0.486,-0.556,-0.486C-0.602,-0.162,-0.648,0.116,-0.694,0.394Z" /></g><g id="i50" transform="matrix(1,0,0,1,30.726,106.649)"><path fill="#44545f" d="M-6.346,-32.11C-6.346,-32.11,-6.208,-18.978,-4.354,0.65C-3.151,11.322,-1.807,24.732,-0.278,33.688C-0.278,33.688,4.54,33.688,4.54,33.688C4.54,33.688,5.234,0.65,5.234,0.65C5.234,0.65,6.346,-19.674,3.938,-33.688C3.938,-33.688,-6.346,-32.11,-6.346,-32.11Z" /></g><g id="i51" transform="matrix(1,0,0,1,31.698,142.519)"><path fill="#365972" d="M-5.512,4.501C-5.372,7.285,3.289,6.312,4.678,5.476C5.234,5.151,5.419,4.548,5.465,3.76C5.512,2.552,5.141,1.021,4.817,-0.186C4.261,-2.135,4.353,-2.088,3.937,-3.433C3.937,-3.433,4.029,-5.614,1.204,-6.449C-1.621,-7.284,-2.687,-1.856,-3.149,-0.835C-3.613,0.139,-5.326,1.439,-5.512,3.76C-5.512,3.76,-5.512,4.501,-5.512,4.501Z" /></g><g id="i52" transform="matrix(1,0,0,1,32.277,139.827)"><path fill="#fdf2fd" d="M2.154,1.021C2.154,1.021,2.385,0.65,2.385,0.65C2.292,0.602,-0.209,-1.021,-2.385,-0.093C-2.385,-0.093,-2.2,0.278,-2.2,0.278C-0.255,-0.511,2.154,1.021,2.154,1.021Z" /></g><g id="i20" transform="matrix(1,0,0,1,32.046,142.239)"><path fill="#fdf2fd" d="M2.154,1.021C2.154,1.021,2.385,0.65,2.385,0.65C2.291,0.604,-0.209,-1.02,-2.385,-0.093C-2.385,-0.093,-2.201,0.278,-2.201,0.278C-0.256,-0.511,2.154,1.021,2.154,1.021Z" /></g><g id="i21" transform="matrix(1,0,0,1,32.184,141.033)"><path fill="#fdf2fd" d="M2.154,1.021C2.154,1.021,2.385,0.65,2.385,0.65C2.293,0.604,-0.208,-1.02,-2.385,-0.092C-2.385,-0.092,-2.199,0.279,-2.199,0.279C-0.254,-0.509,2.108,1.021,2.154,1.021Z" /></g><g id="i22" transform="matrix(1,0,0,1,34.57,140.754)"><path fill="#fdf2fd" d="M-0.463,-0.001C-0.463,0.278,-0.232,0.464,-0.001,0.464C0.277,0.464,0.463,0.232,0.463,-0.001C0.463,-0.279,0.231,-0.464,-0.001,-0.464C-0.232,-0.464,-0.463,-0.279,-0.463,-0.001Z" /></g><g id="i23" transform="matrix(1,0,0,1,34.57,141.915)"><path fill="#fdf2fd" d="M-0.463,0.001C-0.463,0.279,-0.232,0.464,-0.001,0.464C0.277,0.464,0.463,0.233,0.463,0.001C0.463,-0.278,0.231,-0.464,-0.001,-0.464C-0.279,-0.464,-0.463,-0.278,-0.463,0.001Z" /></g><g id="i24" transform="matrix(1,0,0,1,34.291,143.028)"><path fill="#fdf2fd" d="M-0.463,-0.001C-0.463,0.278,-0.231,0.464,0.001,0.464C0.277,0.464,0.463,0.231,0.463,-0.001C0.463,-0.279,0.231,-0.465,0.001,-0.465C-0.231,-0.465,-0.463,-0.233,-0.463,-0.001Z" /></g><g id="i25" transform="matrix(1,0,0,1,29.706,142.379)"><path fill="#fdf2fd" d="M-0.463,-0.001C-0.463,0.278,-0.231,0.464,0.001,0.464C0.279,0.464,0.463,0.232,0.463,-0.001C0.463,-0.279,0.232,-0.464,0.001,-0.464C-0.231,-0.464,-0.463,-0.279,-0.463,-0.001Z" /></g><g id="i26" transform="matrix(1,0,0,1,29.845,141.126)"><path fill="#fdf2fd" d="M-0.463,0.001C-0.463,0.279,-0.232,0.465,-0.001,0.465C0.277,0.465,0.463,0.233,0.463,0.001C0.463,-0.278,0.231,-0.464,-0.001,-0.464C-0.279,-0.464,-0.463,-0.278,-0.463,0.001Z" /></g><g id="i27" transform="matrix(1,0,0,1,29.984,139.873)"><path fill="#fdf2fd" d="M-0.463,-0.001C-0.463,0.278,-0.231,0.464,0.001,0.464C0.279,0.464,0.463,0.232,0.463,-0.001C0.463,-0.279,0.232,-0.465,0.001,-0.465C-0.277,-0.465,-0.463,-0.279,-0.463,-0.001Z" /></g><g id="i28" transform="matrix(1,0,0,1,31.674,148.04)"><path fill="#917259" d="M-5.488,-1.021C-5.348,1.763,3.313,0.788,4.702,-0.048C5.258,-0.372,5.442,-0.975,5.488,-1.764C4.562,-1.254,2.987,-0.604,0.579,-0.557C-2.34,-0.511,-4.469,-1.113,-5.488,-1.717C-5.488,-1.717,-5.488,-1.021,-5.488,-1.021Z" /></g><g id="i29" transform="matrix(1,0,0,1,32.762,137.553)"><path fill="#fdf2fd" d="M-1.065,-0.603C-1.065,-0.603,0.231,-0.743,1.389,-0.139C1.389,-0.139,1.251,0.743,1.251,0.743C1.251,0.743,-0.323,0.278,-1.343,0.372C-1.389,0.372,-1.343,-0.186,-1.065,-0.603Z" /></g><g id="i30" transform="matrix(1,0,0,1,23.338,76.465)"><path fill="#44545f" d="M10.583,-6.937C10.583,-6.937,12.204,-1.137,12.204,4.014C12.204,4.014,4.238,7.494,-5.952,3.643C-10.12,2.065,-12.205,-2.575,-10.723,-6.751C-10.723,-6.798,-10.674,-6.844,-10.674,-6.891C-10.674,-6.937,2.339,-7.494,10.583,-6.937Z" /></g><g id="i31" transform="matrix(1,0,0,1,29.129,25.376)"><path fill="#d8abd8" d="M-1.598,-5.685C-1.598,-5.685,4.423,-5.639,7.156,-3.133C9.889,-0.627,7.248,4.385,4.284,5.035C1.319,5.685,-7.944,4.524,-8.916,2.947C-9.889,1.323,-9.24,-5.592,-1.598,-5.685Z" /></g><g id="i32" transform="matrix(1,0,0,1,24.52,52.011)"><path fill="#d8abd8" d="M12.876,20.951C3.891,26.519,-6.577,24.663,-14.728,20.858C-14.728,20.858,-9.727,-24.662,-9.727,-24.662C-9.727,-24.662,-4.447,-25.359,-4.447,-25.359C-4.447,-25.359,-4.029,-25.404,-4.029,-25.404C-4.029,-25.404,-2.825,-25.544,-2.825,-25.544C-2.825,-25.544,4.539,-26.519,4.539,-26.519C4.539,-26.519,5.79,-26.102,5.79,-26.102C5.79,-26.102,7.364,-25.544,7.364,-25.544C7.364,-25.544,7.735,-25.404,7.735,-25.404C7.735,-25.404,14.728,-22.993,14.728,-22.993C14.728,-22.993,10.097,-2.621,10.051,4.293C10.051,8.423,12.876,20.951,12.876,20.951Z" /></g><g id="i33" transform="matrix(1,0,0,1,30.124,27.975)"><path fill="#cd84cd" d="M-3.149,2.482C2.13,2.482,3.381,-2.157,3.381,-2.204C3.427,-2.296,3.335,-2.437,3.242,-2.437C3.15,-2.483,3.011,-2.39,3.011,-2.297C2.964,-2.112,1.806,2.111,-3.149,2.111C-3.149,2.111,-3.242,2.111,-3.242,2.111C-3.335,2.111,-3.427,2.204,-3.427,2.296C-3.427,2.389,-3.335,2.482,-3.242,2.482C-3.242,2.482,-3.149,2.482,-3.149,2.482Z" /></g><g id="i34" transform="matrix(1,0,0,1,20.908,28.369)"><path fill="#cd84cd" d="M1.111,1.346C1.204,1.346,1.297,1.253,1.297,1.16C1.297,1.068,1.204,0.975,1.111,0.975C1.019,0.975,-0.51,0.881,-0.881,-1.161C-0.881,-1.254,-1.019,-1.346,-1.112,-1.3C-1.205,-1.3,-1.297,-1.161,-1.251,-1.068C-0.788,1.299,1.111,1.346,1.111,1.346Z" /></g><g id="i35" transform="matrix(1,0,0,1,20.559,64.33)"><path fill="#cd84cd" d="M7.018,-4.176C7.018,-4.176,7.064,-0.046,7.99,3.805C7.99,3.805,-1.829,5.383,-7.387,2.367C-7.387,2.367,-7.99,-1.253,-7.249,-5.383C-7.249,-5.383,7.018,-4.176,7.018,-4.176Z" /></g><g id="i36" transform="matrix(1,0,0,1,27.044,40.295)"><path fill="#fdf2fd" d="M-1.18,8.863C-1.042,8.863,-0.996,8.77,-0.996,8.631C-1.18,6.311,-0.254,2.738,0.672,-0.742C1.598,-4.176,0.44,-8.585,0.487,-8.632C0.487,-8.724,0.439,-8.817,0.301,-8.863C0.209,-8.863,0.116,-8.817,0.07,-8.678C0.07,-8.632,1.32,-4.454,0.21,-0.417C-0.718,3.016,-1.597,6.403,-1.412,8.676C-1.366,8.816,-1.32,8.863,-1.18,8.863Z" /></g><g id="i8" transform="matrix(1,0,0,1,20.188,39.343)"><path fill="#fdf2fd" d="M-0.765,8.794C-0.811,8.794,-0.811,8.794,-0.765,8.794C-0.903,8.748,-0.949,8.655,-0.903,8.562C-0.301,6.335,-0.579,2.622,-0.857,-0.951C-1.135,-4.524,0.765,-8.608,0.765,-8.654C0.765,-8.747,0.857,-8.84,0.951,-8.84C1.043,-8.84,1.135,-8.747,1.135,-8.654C1.135,-8.608,-0.857,-4.71,-0.533,-0.58C-0.255,2.946,0.023,6.474,-0.579,8.701C-0.579,8.748,-0.672,8.84,-0.765,8.794Z" /></g><g id="i9" transform="matrix(1,0,0,1,16.044,9.901)"><path fill="#323f49" d="M-0.418,-4.037C-0.418,-4.037,-2.224,-2.831,-1.576,0.418C-0.928,3.666,0.325,4.037,0.325,4.037C0.325,4.037,2.223,-3.155,-0.418,-4.037Z" /></g><g id="i10" transform="matrix(1,0,0,1,26.117,24.147)"><path fill="#f2b688" d="M-3.404,-2.831C-3.404,-2.831,-3.034,1.252,-3.034,1.252C-3.034,1.252,-2.894,3.156,-2.894,3.156C-0.487,4.826,3.266,2.32,3.266,2.32C3.266,2.32,3.404,-4.13,3.404,-4.13C2.293,-4.826,-0.439,-3.806,-2.107,-3.249C-2.894,-3.017,-3.404,-2.831,-3.404,-2.831Z" /></g><g id="i11" transform="matrix(1,0,0,1,25.376,23.079)"><path fill="#ff8e3a" d="M-2.663,-1.763C-2.663,-1.763,-2.293,2.32,-2.293,2.32C0.44,1.578,2.663,-2.32,2.663,-2.32C2.663,-2.32,-1.32,-2.227,-1.32,-2.227C-2.153,-1.949,-2.663,-1.763,-2.663,-1.763Z" /></g><g id="i12" transform="matrix(1,0,0,1,23.407,13.869)"><path fill="#f2b688" d="M-8.569,-3.086C-8.569,-3.086,-8.569,-2.761,-8.569,-2.761C-8.569,-2.761,-8.569,-2.622,-8.569,-2.622C-8.569,-2.622,-8.569,-2.344,-8.569,-2.344C-8.523,-1.091,-7.365,5.266,-6.392,7.586C-5.604,9.442,-3.567,10.278,-1.853,9.907C-0.417,9.628,1.159,9.257,2.641,8.839C2.733,8.839,2.779,8.793,2.872,8.793C4.029,8.468,5.142,8.097,6.068,7.679C6.207,7.494,6.3,7.354,6.392,7.169C7.319,5.684,7.875,3.967,8.245,2.25C8.385,1.554,8.476,0.858,8.522,0.116C8.522,0.069,8.523,0.023,8.569,-0.07C8.569,-0.07,8.569,-2.019,8.569,-2.019C8.477,-6.659,4.585,-10.278,0,-10.046C-3.659,-9.861,-6.068,-8.283,-7.365,-6.752C-7.967,-6.102,-8.569,-4.571,-8.569,-3.086Z" /></g><g id="i13" transform="matrix(1,0,0,1,30.494,18.532)"><path fill="#323f49" d="M-0.694,2.46C0.232,0.975,0.788,-0.743,1.158,-2.46C0.648,-2.46,-0.046,-2.273,-0.926,-1.902C-0.972,-1.902,-1.158,0.697,-0.694,2.46Z" /></g><g id="i14" transform="matrix(1,0,0,1,31.143,14.657)"><path fill="#f2b688" d="M-2.409,-1.462C-2.409,-1.462,-0.649,-3.55,0.786,-2.344C2.408,-0.998,1.158,3.55,-2.085,3.458C-2.085,3.458,-2.409,-1.462,-2.409,-1.462Z" /></g><g id="i15" transform="matrix(1,0,0,1,29.915,15.4)"><path fill="#ff8e3a" d="M-0.949,1.74C-0.811,1.74,-0.671,1.647,-0.671,1.508C-0.393,-0.812,0.949,-1.137,1.043,-1.183C1.181,-1.23,1.274,-1.369,1.274,-1.508C1.227,-1.647,1.089,-1.74,0.949,-1.74C0.857,-1.74,-0.857,-1.322,-1.181,1.415C-1.274,1.554,-1.135,1.74,-0.949,1.74Z" /></g><g id="i3" transform="matrix(1,0,0,1,30.216,15.075)"><path fill="#ff8e3a" d="M0.602,0.58C0.649,0.58,0.742,0.534,0.788,0.487C0.926,0.394,0.926,0.209,0.834,0.07C0.788,0.023,0.232,-0.58,-0.694,-0.395C-0.834,-0.348,-0.926,-0.209,-0.926,-0.07C-0.88,0.07,-0.74,0.162,-0.602,0.162C0,0.023,0.371,0.441,0.371,0.441C0.418,0.58,0.51,0.58,0.602,0.58Z" /></g><g id="i4" transform="matrix(1,0,0,1,22.806,7.976)"><path fill="#323f49" d="M-7.133,-0.163C-4.91,3.085,1.25,-1.09,1.25,-1.09C1.574,0.395,3.752,0.394,4.307,1.647C4.863,2.9,4.724,7.725,4.724,7.725C4.724,7.725,5.929,5.266,5.929,5.266C7.411,3.271,9.124,4.384,9.124,4.384C9.958,0.394,9.958,-2.483,6.715,-4.478C5.187,-5.406,3.474,-5.173,2.732,-5.359C1.528,-5.869,-3.752,-7.726,-6.901,-5.453C-9.958,-3.411,-7.225,-0.302,-7.133,-0.163Z" /></g><g id="i5" transform="matrix(1,0,0,1,34.94,76.534)"><path fill="#f2b688" d="M0.88,-5.568C0.88,-5.568,-0.556,-4.965,-1.483,-4.083C-2.409,-3.201,-3.381,-2.273,-3.937,-1.717C-4.632,-1.067,-3.797,-0.696,-3.01,-1.067C-1.806,-1.624,-1.483,-2.227,-1.483,-2.227C-1.483,-2.227,-4.493,1.763,-3.891,3.016C-2.594,5.708,-1.667,5.8,1.296,4.455C1.992,4.13,4.631,-1.81,3.797,-4.733C3.844,-4.733,1.574,-5.8,0.88,-5.568Z" /></g><g id="i1" transform="matrix(1,0,0,1,39.642,50.712)"><path fill="#d8abd8" d="M-1.922,10.464C-3.127,15.847,-4.099,20.348,-4.099,20.348C-3.405,21.554,-2.108,21.924,-0.764,22.249C3.173,13.85,4.84,6.566,5.534,0.859C5.674,-5.637,-0.394,-21.786,-0.394,-21.786C-4.515,-22.25,-5.674,-16.542,-5.674,-16.542C-2.849,-7.122,0.023,1.461,0.069,1.6C-0.162,2.482,-0.904,5.87,-1.922,10.464Z" /></g></g></svg>